<?xml version="1.0" encoding="utf-8"?>
<!-- Generator: Adobe Illustrator 27.5.0, SVG Export Plug-In . SVG Version: 6.00 Build 0)  -->
<svg version="1.1" xmlns="http://www.w3.org/2000/svg" xmlns:xlink="http://www.w3.org/1999/xlink" x="0px" y="0px"
	 viewBox="0 0 500 500" style="enable-background:new 0 0 500 500;" xml:space="preserve">
<g id="BACKGROUND">
	<rect x="-0.001" style="fill:#FFFFFF;" width="500" height="500"/>
</g>
<g id="OBJECTS">
	<g>
		
			<ellipse transform="matrix(0.7071 -0.7071 0.7071 0.7071 -83.0082 241.4899)" style="fill:#FF6472;" cx="250" cy="220.945" rx="160.107" ry="160.107"/>
		<g>
			<g>
				<g>
					<path style="fill:#FFC741;" d="M144.656,350.39c0,0-0.81,0.65-2.35,1.75c-9.92,7.13-50,33.26-95.33,26.09
						c0,0,0.01-0.01,0.02-0.02c23.62-36.89,75.67-31.62,92.38-28.84c1.97,0.33,3.45,0.63,4.33,0.81
						C144.326,350.31,144.656,350.39,144.656,350.39z"/>
					<path style="fill:#FFAA41;" d="M144.086,349.64c-0.13,0.18-0.25,0.36-0.38,0.54c-0.46,0.66-0.93,1.32-1.4,1.96
						c-9.92,7.13-50,33.26-95.33,26.09c0,0,0.01-0.01,0.02-0.02c0.88-0.92,30.74-31.61,92.38-28.84
						C140.926,349.43,142.496,349.53,144.086,349.64z"/>
				</g>
				<g>
					<path style="fill:#FFC741;" d="M355.344,350.39c0,0,0.81,0.65,2.35,1.75c9.92,7.13,50,33.26,95.33,26.09
						c0,0-0.01-0.01-0.02-0.02c-23.62-36.89-75.67-31.62-92.38-28.84c-1.97,0.33-3.45,0.63-4.33,0.81
						C355.674,350.31,355.344,350.39,355.344,350.39z"/>
					<path style="fill:#FFAA41;" d="M355.914,349.64c0.13,0.18,0.25,0.36,0.38,0.54c0.46,0.66,0.93,1.32,1.4,1.96
						c9.92,7.13,50,33.26,95.33,26.09c0,0-0.01-0.01-0.02-0.02c-0.88-0.92-30.74-31.61-92.38-28.84
						C359.074,349.43,357.504,349.53,355.914,349.64z"/>
				</g>
			</g>
			<g>
				<g>
					<path style="fill:#FFC741;" d="M381.659,284.62c-4.91,6.87-11.79,12.4-15.38,20.05c-4.9,10.44-2.78,22.9-6.45,33.83
						c-2.65,7.91-8.4,14.73-15.74,18.69c-7.22,3.89-15.89,4.97-23.83,2.98c-0.15-0.03-0.29-0.07-0.44-0.11l-3.55-4.92
						c-3.98-5.74-5.01-13.25-3.45-20.06c1.56-6.81,5.56-12.91,10.68-17.66c3.77-3.49,8.13-6.3,11.95-9.73
						c3.82-3.43,7.2-7.7,8.12-12.76c0.68-3.72-0.02-7.55-0.1-11.34c-0.19-8.57,2.95-17.18,8.62-23.62c2.8-3.19,6.17-5.83,9.18-8.83
						c5.52-5.51,9.81-12.24,12.47-19.57c1.2-3.3,2.13-6.81,4.41-9.48c0.59-0.7,1.31-1.35,2.19-1.6c0.2-0.05,0.39-0.09,0.58-0.09
						c1.8-0.11,3.5,1.54,3.98,3.35c0.54,2.01,0.04,4.13-0.31,6.18c-0.94,5.52-0.79,11.22,0.43,16.68c1.04,4.59,2.82,9.01,3.44,13.67
						C389.599,268.83,386.669,277.6,381.659,284.62z"/>
					<path style="fill:#FFAA41;" d="M381.659,284.62c-4.91,6.87-11.79,12.4-15.38,20.05c-4.9,10.44-2.78,22.9-6.45,33.83
						c-2.65,7.91-8.4,14.73-15.74,18.69c-7.22,3.89-15.89,4.97-23.83,2.98l3-3.97c-3.26-10.92,0.76-22.9,7.33-32.22
						c6.56-9.33,15.47-16.69,23.53-24.76c8.05-8.08,15.54-17.39,18.05-28.52c2.33-10.33,0.16-21.37,3.13-31.54
						c1.22-4.19,3.28-8.1,4.49-12.3c0.6-2.11,0.98-4.27,1.13-6.46c1.8-0.11,3.5,1.54,3.98,3.35c0.54,2.01,0.04,4.13-0.31,6.18
						c-0.94,5.52-0.79,11.22,0.43,16.68c1.04,4.59,2.82,9.01,3.44,13.67C389.599,268.83,386.669,277.6,381.659,284.62z"/>
				</g>
				<g>
					<path style="fill:#FFFFFF;" d="M335.518,350.957c-0.164,0-0.325-0.081-0.421-0.229c-0.131-0.203-13.126-20.716-14.389-52.434
						c-0.741-18.62,2.642-37.41,10.055-55.848c9.258-23.028,24.865-45.566,46.385-66.988c0.194-0.195,0.512-0.194,0.707,0.002
						c0.195,0.195,0.194,0.512-0.002,0.707c-26.757,26.634-58.218,69.426-56.148,122.032c1.238,31.461,14.103,51.785,14.232,51.987
						c0.149,0.232,0.083,0.541-0.15,0.691C335.705,350.932,335.611,350.957,335.518,350.957z"/>
					<path style="fill:#FFFFFF;" d="M374.087,179.273c0,0-1.343-15.368,17.76-17.649
						C388.704,176.851,374.087,179.273,374.087,179.273z"/>
					<path style="fill:#FFFFFF;" d="M364.402,189.825c0,0-9.764-11.005,4.777-28.2C371.46,179.642,364.402,189.825,364.402,189.825z
						"/>
					<path style="fill:#FFFFFF;" d="M361.359,193.406c0,0,16.516,9.23,30.487-4.12C376.165,184.489,361.359,193.406,361.359,193.406
						z"/>
					<path style="fill:#FFFFFF;" d="M352.666,204.544c0,0-13.567-13.069-4.016-31.602
						C357.632,188.338,352.666,204.544,352.666,204.544z"/>
					<path style="fill:#FFFFFF;" d="M349.64,208.805c0,0,17.829,10.685,33.654-3.038C367.611,202.167,349.64,208.805,349.64,208.805
						z"/>
					<path style="fill:#FFFFFF;" d="M341.609,221.453c0,0-17.908-13.748-8.213-34.908
						C341.095,199.316,341.609,221.453,341.609,221.453z"/>
					<path style="fill:#FFFFFF;" d="M337.533,228.892c0,0,16.82,9.446,37.064-8.925
						C360.483,217.421,337.533,228.892,337.533,228.892z"/>
					<path style="fill:#FFFFFF;" d="M330.15,245.395c0,0-21.844-10.491-12.578-36.767
						C330.545,220.415,330.15,245.395,330.15,245.395z"/>
					<path style="fill:#FFFFFF;" d="M326.161,257.451c0,0,27.809,5.697,36.911-18.806
						C340.524,237.665,326.496,256.245,326.161,257.451z"/>
					<path style="fill:#FFFFFF;" d="M324.114,320.5c0,0-1.283-20.664,19.626-27.119C342.814,316.457,324.114,320.5,324.114,320.5z"
						/>
					<path style="fill:#FFFFFF;" d="M326.95,330.931c0,0-10.941-25.594-33.332-19.489
						C300.268,332.178,326.95,330.931,326.95,330.931z"/>
					<path style="fill:#FFFFFF;" d="M330.519,340.522c0,0-4.695-22.258,20.105-31.152c-0.209,23.037-20.105,32.119-20.105,32.119"/>
				</g>
				<g>
					<path style="fill:#499ECE;" d="M374.918,305.174c10.513-2.893,22.443-3.68,30.229-11.314c2.091-2.05,3.775-4.518,6.067-6.341
						c2.292-1.823,5.512-2.92,8.166-1.68c3.167,1.48,4.165,5.75,3.101,9.08c-1.064,3.33-3.633,5.926-6.117,8.386
						c4.001-1.311,7.673-3.728,11.849-4.268c4.176-0.54,9.261,1.883,9.409,6.091c0.12,3.433-2.992,6.044-5.971,7.754
						c-3.557,2.042-7.37,3.636-11.321,4.733c3.178-0.957,6.082,3.079,5.241,6.29c-0.84,3.21-3.932,5.293-6.988,6.587
						c-5.737,2.43-12.163,3.132-18.322,2.195c2.993,0.472,5.005,3.765,4.679,6.777c-0.326,3.012-2.533,5.576-5.184,7.041
						c-2.652,1.466-5.712,1.993-8.723,2.329c-10.158,1.135-20.429,0.352-30.64,0.808c-8.555,0.383-17.337,1.696-25.048,5.617
						c-4.547,2.312-8.509,5.207-6.604-2.048c3.534-13.463,11.912-27.032,22.632-35.81
						C358.26,311.762,366.331,307.537,374.918,305.174z"/>
					<path style="fill:#49C3DC;" d="M395.033,326.432c-0.033,0-0.067-0.003-0.101-0.01l-17.652-3.611l13.453-21.288
						c0.148-0.232,0.457-0.301,0.69-0.155c0.233,0.147,0.303,0.456,0.156,0.69l-12.679,20.064l16.233,3.32
						c0.271,0.056,0.445,0.32,0.39,0.591C395.474,326.269,395.265,326.432,395.033,326.432z"/>
					<path style="fill:#49C3DC;" d="M355.389,346.084c-0.097,0-0.194-0.027-0.28-0.086c-0.229-0.155-0.289-0.466-0.134-0.694
						c7.82-11.552,19.202-20.91,32.048-26.351c6.455-2.734,13.348-4.544,20.015-6.295c7.101-1.865,14.443-3.793,21.221-6.836
						c0.251-0.115,0.548-0.001,0.661,0.251c0.113,0.252,0,0.548-0.251,0.661c-6.853,3.077-14.236,5.016-21.376,6.891
						c-6.632,1.742-13.49,3.543-19.879,6.248c-12.67,5.367-23.896,14.598-31.609,25.991
						C355.707,346.007,355.549,346.084,355.389,346.084z"/>
					<path style="fill:#49C3DC;" d="M416.857,320.094c-0.045,0-0.091-0.006-0.137-0.019l-16.999-4.831l8.23-14.42
						c0.136-0.239,0.44-0.322,0.682-0.186c0.24,0.138,0.323,0.442,0.186,0.683l-7.598,13.311l15.771,4.481
						c0.266,0.076,0.42,0.353,0.344,0.618C417.275,319.95,417.074,320.094,416.857,320.094z"/>
				</g>
			</g>
			<g>
				<g>
					<path style="fill:#FFC741;" d="M119.361,284.62c4.91,6.87,11.79,12.4,15.38,20.05c4.9,10.44,2.78,22.9,6.45,33.83
						c2.65,7.91,8.4,14.73,15.74,18.69c7.22,3.89,15.89,4.97,23.83,2.98c0.15-0.03,0.29-0.07,0.44-0.11l3.55-4.92
						c3.98-5.74,5.01-13.25,3.45-20.06c-1.56-6.81-5.56-12.91-10.68-17.66c-3.77-3.49-8.13-6.3-11.95-9.73
						c-3.82-3.43-7.2-7.7-8.12-12.76c-0.68-3.72,0.02-7.55,0.1-11.34c0.19-8.57-2.95-17.18-8.62-23.62
						c-2.8-3.19-6.17-5.83-9.18-8.83c-5.52-5.51-9.81-12.24-12.47-19.57c-1.2-3.3-2.13-6.81-4.41-9.48c-0.59-0.7-1.31-1.35-2.19-1.6
						c-0.2-0.05-0.39-0.09-0.58-0.09c-1.8-0.11-3.5,1.54-3.98,3.35c-0.54,2.01-0.04,4.13,0.31,6.18c0.94,5.52,0.79,11.22-0.43,16.68
						c-1.04,4.59-2.82,9.01-3.44,13.67C111.421,268.83,114.351,277.6,119.361,284.62z"/>
					<path style="fill:#FFAA41;" d="M119.361,284.62c4.91,6.87,11.79,12.4,15.38,20.05c4.9,10.44,2.78,22.9,6.45,33.83
						c2.65,7.91,8.4,14.73,15.74,18.69c7.22,3.89,15.89,4.97,23.83,2.98l-3-3.97c3.26-10.92-0.76-22.9-7.33-32.22
						c-6.56-9.33-15.47-16.69-23.53-24.76c-8.05-8.08-15.54-17.39-18.05-28.52c-2.33-10.33-0.16-21.37-3.13-31.54
						c-1.22-4.19-3.28-8.1-4.49-12.3c-0.6-2.11-0.98-4.27-1.13-6.46c-1.8-0.11-3.5,1.54-3.98,3.35c-0.54,2.01-0.04,4.13,0.31,6.18
						c0.94,5.52,0.79,11.22-0.43,16.68c-1.04,4.59-2.82,9.01-3.44,13.67C111.421,268.83,114.351,277.6,119.361,284.62z"/>
				</g>
				<g>
					<path style="fill:#FFFFFF;" d="M165.502,350.957c-0.093,0-0.187-0.025-0.27-0.08c-0.232-0.15-0.299-0.459-0.15-0.691
						c0.13-0.202,12.995-20.526,14.232-51.987c2.069-52.606-29.391-95.398-56.148-122.032c-0.196-0.195-0.197-0.512-0.002-0.707
						c0.195-0.195,0.512-0.197,0.707-0.002c21.521,21.422,37.127,43.961,46.385,66.988c7.413,18.437,10.796,37.227,10.055,55.848
						c-1.262,31.718-14.258,52.23-14.389,52.434C165.827,350.876,165.666,350.957,165.502,350.957z"/>
					<path style="fill:#FFFFFF;" d="M126.933,179.273c0,0,1.343-15.368-17.76-17.649
						C112.316,176.851,126.933,179.273,126.933,179.273z"/>
					<path style="fill:#FFFFFF;" d="M136.618,189.825c0,0,9.764-11.005-4.777-28.2C129.56,179.642,136.618,189.825,136.618,189.825z
						"/>
					<path style="fill:#FFFFFF;" d="M139.661,193.406c0,0-16.516,9.23-30.487-4.12C124.855,184.489,139.661,193.406,139.661,193.406
						z"/>
					<path style="fill:#FFFFFF;" d="M148.354,204.544c0,0,13.567-13.069,4.016-31.602
						C143.388,188.338,148.354,204.544,148.354,204.544z"/>
					<path style="fill:#FFFFFF;" d="M151.38,208.805c0,0-17.829,10.685-33.653-3.038C133.409,202.167,151.38,208.805,151.38,208.805
						z"/>
					<path style="fill:#FFFFFF;" d="M159.411,221.453c0,0,17.908-13.748,8.213-34.908
						C159.926,199.316,159.411,221.453,159.411,221.453z"/>
					<path style="fill:#FFFFFF;" d="M163.487,228.892c0,0-16.82,9.446-37.063-8.925
						C140.537,217.421,163.487,228.892,163.487,228.892z"/>
					<path style="fill:#FFFFFF;" d="M170.87,245.395c0,0,21.844-10.491,12.578-36.767
						C170.475,220.415,170.87,245.395,170.87,245.395z"/>
					<path style="fill:#FFFFFF;" d="M174.859,257.451c0,0-27.809,5.697-36.911-18.806
						C160.496,237.665,174.525,256.245,174.859,257.451z"/>
					<path style="fill:#FFFFFF;" d="M176.906,320.5c0,0,1.283-20.664-19.626-27.119C158.206,316.457,176.906,320.5,176.906,320.5z"
						/>
					<path style="fill:#FFFFFF;" d="M174.07,330.931c0,0,10.941-25.594,33.332-19.489
						C200.752,332.178,174.07,330.931,174.07,330.931z"/>
					<path style="fill:#FFFFFF;" d="M170.501,340.522c0,0,4.695-22.258-20.105-31.152c0.209,23.037,20.105,32.119,20.105,32.119"/>
				</g>
				<g>
					<path style="fill:#499ECE;" d="M126.103,305.174c-10.513-2.893-22.443-3.68-30.229-11.314c-2.091-2.05-3.774-4.518-6.066-6.341
						c-2.292-1.823-5.513-2.92-8.166-1.68c-3.167,1.48-4.165,5.75-3.101,9.08c1.064,3.33,3.633,5.926,6.117,8.386
						c-4.001-1.311-7.673-3.728-11.849-4.268c-4.176-0.54-9.261,1.883-9.409,6.091c-0.12,3.433,2.992,6.044,5.971,7.754
						c3.557,2.042,7.37,3.636,11.321,4.733c-3.178-0.957-6.082,3.079-5.241,6.29c0.84,3.21,3.932,5.293,6.988,6.587
						c5.736,2.43,12.163,3.132,18.322,2.195c-2.993,0.472-5.005,3.765-4.679,6.777c0.326,3.012,2.533,5.576,5.184,7.041
						c2.652,1.466,5.712,1.993,8.723,2.329c10.158,1.135,20.428,0.352,30.64,0.808c8.555,0.383,17.337,1.696,25.049,5.617
						c4.547,2.312,8.508,5.207,6.604-2.048c-3.534-13.463-11.912-27.032-22.633-35.81
						C142.76,311.762,134.689,307.537,126.103,305.174z"/>
					<path style="fill:#49C3DC;" d="M105.988,326.432c-0.233,0-0.441-0.163-0.489-0.399c-0.056-0.271,0.119-0.535,0.39-0.591
						l16.233-3.32l-12.679-20.064c-0.147-0.234-0.078-0.543,0.156-0.69c0.234-0.145,0.543-0.077,0.69,0.155l13.453,21.288
						l-17.652,3.611C106.054,326.429,106.021,326.432,105.988,326.432z"/>
					<path style="fill:#49C3DC;" d="M145.632,346.084c-0.16,0-0.318-0.077-0.415-0.22c-7.713-11.394-18.939-20.624-31.61-25.991
						c-6.389-2.705-13.247-4.506-19.879-6.248c-7.14-1.875-14.523-3.814-21.376-6.891c-0.252-0.113-0.365-0.409-0.252-0.661
						c0.113-0.252,0.409-0.365,0.661-0.251c6.778,3.043,14.12,4.971,21.221,6.836c6.666,1.751,13.56,3.561,20.015,6.295
						c12.846,5.44,24.228,14.799,32.048,26.351c0.155,0.228,0.095,0.539-0.134,0.694
						C145.825,346.057,145.728,346.084,145.632,346.084z"/>
					<path style="fill:#49C3DC;" d="M84.163,320.094c-0.218,0-0.418-0.144-0.48-0.363c-0.076-0.266,0.079-0.542,0.344-0.618
						l15.771-4.481l-7.598-13.311c-0.137-0.24-0.054-0.545,0.186-0.683c0.241-0.136,0.545-0.053,0.682,0.186l8.23,14.42
						L84.3,320.075C84.255,320.088,84.209,320.094,84.163,320.094z"/>
				</g>
			</g>
		</g>
		<path style="fill:#FFFFFF;" d="M310.474,87.627c-0.891-0.125-0.191,5.364-1.973,6.151c-1.782,0.786-6.244,0.397-6.244,1.179
			c0,0.782,5.353,0.444,6.244,1.25c0.891,0.807,1.176,6.608,2.066,6.78c0.891,0.172,0.718-5.997,2.054-6.863
			c1.336-0.866,5.688-0.425,5.688-1.293s-3.823-0.01-5.828-1.228C310.477,92.385,311.365,87.752,310.474,87.627z"/>
		<path style="fill:#FFFFFF;" d="M170.981,125.915c-0.586-0.082-0.126,3.53-1.298,4.048c-1.173,0.518-4.109,0.262-4.109,0.776
			c0,0.515,3.523,0.292,4.109,0.823c0.586,0.531,0.774,4.349,1.36,4.462c0.586,0.113,0.473-3.947,1.352-4.517
			c0.879-0.57,3.744-0.28,3.743-0.851c0-0.572-2.516-0.007-3.835-0.808C170.983,129.046,171.568,125.997,170.981,125.915z"/>
		<path style="fill:#FFFFFF;" d="M194.12,181.841c-0.434-0.061-0.093,2.611-0.96,2.993c-0.867,0.383-3.039,0.193-3.039,0.574
			c0,0.381,2.605,0.216,3.039,0.608c0.434,0.393,0.572,3.216,1.006,3.3c0.434,0.084,0.35-2.919,1-3.34
			c0.65-0.421,2.768-0.207,2.768-0.629c0-0.423-1.861-0.005-2.836-0.598C194.121,184.156,194.553,181.901,194.12,181.841z"/>
		<path style="fill:#FFFFFF;" d="M214.951,102.482c-0.434-0.061-0.093,2.611-0.96,2.993c-0.867,0.383-3.039,0.193-3.039,0.574
			c0,0.381,2.605,0.216,3.039,0.608c0.434,0.393,0.572,3.216,1.006,3.3c0.434,0.084,0.349-2.918,1-3.34
			c0.65-0.422,2.768-0.207,2.768-0.629c0-0.423-1.861-0.005-2.836-0.598C214.953,104.797,215.385,102.543,214.951,102.482z"/>
		<g>
			<path style="fill:#FFC741;" d="M376.646,124.775c-8.117,2.364-16.476,0.127-22.299-5.177c-3.079-2.802-5.454-6.468-6.699-10.757
				c-3.609-12.406,3.528-25.389,15.934-28.998c8.451-2.444,17.168,0.069,23.002,5.846c2.744,2.709,4.842,6.134,5.995,10.089
				C396.189,108.184,389.052,121.167,376.646,124.775z"/>
			<path style="fill:#FFAA41;" d="M376.646,124.775c-8.117,2.364-16.476,0.127-22.299-5.177c1.51-0.496,3.009-1.038,4.497-1.626
				c8.647-3.436,16.788-8.751,22.103-16.396c3.228-4.658,5.292-10.262,5.638-15.888c2.744,2.709,4.842,6.134,5.995,10.089
				C396.189,108.184,389.052,121.167,376.646,124.775z"/>
			<path style="fill:#49C3DC;" d="M415.724,89.361l0.011-0.003L415.724,89.361z M390.943,91.644
				c0.172,0.346,0.345,0.692,0.499,1.056c14.732-3.431,23.389-4.339,24.264-3.357c-0.211,1.298-8.036,5.194-22.355,10.21
				c-6.059,2.122-13.286,4.439-21.59,6.854c-8.691,2.527-16.328,4.508-22.767,5.984c-14.359,3.311-22.741,4.175-23.491,3.204
				c0.106-1.244,7.62-5.013,21.456-9.913c-0.054-0.393-0.105-0.774-0.134-1.162c-12.237,4.29-23.137,8.925-22.425,11.371
				c0.715,2.458,12.452,0.498,25.126-2.455c7.997-1.857,16.368-4.123,22.557-5.922c5.967-1.735,13.864-4.187,21.365-6.8
				c12.609-4.375,24.106-9.183,23.376-11.696C416.096,86.515,403.89,88.6,390.943,91.644z"/>
		</g>
		<g>
			<g>
				<path style="fill:#499ECE;" d="M178.487,101.103c-1.891,3.285-4.646,6.121-8.139,8.108c-0.545,0.337-1.122,0.625-1.715,0.897
					c-11.023,5.095-24.083,0.288-29.178-10.735c-0.994-2.147-1.618-4.374-1.859-6.601c-0.417-3.429,0-6.874,1.138-10.046
					c1.554-4.326,4.454-8.156,8.444-10.815c0.961-0.641,1.971-1.202,3.028-1.699c8.156-3.765,17.449-2.115,23.762,3.509
					c2.227,1.939,4.07,4.374,5.383,7.226c0.08,0.144,0.144,0.288,0.192,0.449c1.026,2.339,1.618,4.791,1.778,7.226
					C181.66,92.98,180.634,97.338,178.487,101.103z"/>
				<path style="fill:#49C3DC;" d="M174.769,95.316c1.527-2.77,3.835-5.071,6.56-6.7c0.323,4.369-0.702,8.724-2.848,12.486
					c-1.867,0.121-3.844-0.414-4.43-2.102C173.631,97.783,174.146,96.451,174.769,95.316z"/>
				<path style="fill:#49C3DC;" d="M179.36,80.949c0.067,0.146,0.134,0.291,0.187,0.443c-2.838,1.804-5.272,4.216-7.024,7.073
					c-1.593,2.589-2.689,5.53-4.675,7.841c-2.774,3.204-7.255,4.85-11.436,4.204c-5.715-0.873-10.152-5.513-15.692-7.191
					c-1.023-0.304-2.085-0.502-3.13-0.549c-0.417-3.425,0.005-6.868,1.151-10.044c0.137-0.01,0.287,0.009,0.415,0.02
					c4.361,0.387,8.602,1.888,12.975,2.11c4.917,0.253,9.894-1.162,13.931-3.961c2.931-2.024,5.323-4.716,7.909-7.181
					C176.191,75.653,178.043,78.098,179.36,80.949z"/>
			</g>
			<path style="opacity:0.2;fill:#38284C;" d="M170.347,109.211c-0.545,0.337-1.122,0.625-1.715,0.897
				c-11.023,5.095-24.083,0.288-29.178-10.735c-0.994-2.147-1.618-4.374-1.859-6.601c-0.417-3.429,0-6.874,1.138-10.046
				c1.554-4.326,4.454-8.156,8.444-10.815c-0.128,3.974,0.417,8.059,1.362,11.873c2.211,8.797,6.634,17.529,14.324,22.304
				C165.22,107.545,167.735,108.554,170.347,109.211z"/>
		</g>
		<path style="fill:#FFFFFF;" d="M203.444,115.866c0,3.044-2.468,5.511-5.511,5.511c-3.044,0-5.511-2.467-5.511-5.511
			s2.467-5.511,5.511-5.511C200.977,110.355,203.444,112.822,203.444,115.866z"/>
		<circle style="fill:#FFFFFF;" cx="148.192" cy="127.733" r="3.237"/>
		<path style="fill:#FFFFFF;" d="M165.794,163.516c0,0.637-0.516,1.153-1.153,1.153c-0.637,0-1.153-0.516-1.153-1.153
			c0-0.637,0.516-1.153,1.153-1.153C165.277,162.363,165.794,162.88,165.794,163.516z"/>
		<circle style="fill:#FFFFFF;" cx="174.859" cy="117.358" r="1.138"/>
		<circle style="fill:#FFFFFF;" cx="186.905" cy="112.142" r="0.577"/>
		<path style="fill:#FFFFFF;" d="M184.591,99.027c0,0.328-0.266,0.594-0.594,0.594c-0.328,0-0.594-0.266-0.594-0.594
			c0-0.328,0.266-0.594,0.594-0.594C184.325,98.433,184.591,98.699,184.591,99.027z"/>
		<circle style="fill:#FFFFFF;" cx="192.422" cy="102.313" r="1.069"/>
		<path style="fill:#FFFFFF;" d="M194.831,88.027c0,0.222-0.18,0.402-0.402,0.402c-0.222,0-0.402-0.18-0.402-0.402
			c0-0.222,0.18-0.402,0.402-0.402C194.651,87.625,194.831,87.805,194.831,88.027z"/>
		<path style="fill:#FFFFFF;" d="M207.898,94.115c0,0.659-0.534,1.193-1.193,1.193c-0.659,0-1.193-0.534-1.193-1.193
			c0-0.659,0.534-1.193,1.193-1.193C207.364,92.922,207.898,93.456,207.898,94.115z"/>
		<circle style="fill:#FFFFFF;" cx="140.805" cy="142.796" r="0.98"/>
		<path style="fill:#FFFFFF;" d="M315.281,122.735c0,0.419-0.34,0.759-0.759,0.759s-0.759-0.34-0.759-0.759s0.34-0.759,0.759-0.759
			S315.281,122.316,315.281,122.735z"/>
		<circle style="fill:#FFFFFF;" cx="316.285" cy="114.242" r="1.003"/>
		<path style="fill:#FFFFFF;" d="M329.605,89.296c0,0.479-0.388,0.866-0.866,0.866c-0.478,0-0.866-0.388-0.866-0.866
			s0.388-0.866,0.866-0.866C329.217,88.43,329.605,88.818,329.605,89.296z"/>
		<path style="fill:#FFFFFF;" d="M291.829,99.778c0,0.415-0.336,0.751-0.751,0.751c-0.415,0-0.751-0.336-0.751-0.751
			c0-0.415,0.336-0.751,0.751-0.751C291.492,99.027,291.829,99.363,291.829,99.778z"/>
		<path style="fill:#FFFFFF;" d="M296.076,85.299c0,0.426-0.345,0.771-0.771,0.771c-0.426,0-0.771-0.345-0.771-0.771
			c0-0.426,0.345-0.771,0.771-0.771C295.731,84.528,296.076,84.873,296.076,85.299z"/>
		<path style="fill:#FFFFFF;" d="M291.077,78.359c0,0.516-0.418,0.934-0.934,0.934s-0.934-0.418-0.934-0.934
			s0.418-0.934,0.934-0.934S291.077,77.843,291.077,78.359z"/>
		<path style="fill:#FFFFFF;" d="M240.814,79.026c0,0.884-0.717,1.601-1.601,1.601c-0.884,0-1.601-0.717-1.601-1.601
			c0-0.884,0.717-1.601,1.601-1.601C240.097,77.425,240.814,78.142,240.814,79.026z"/>
		<path style="fill:#FFFFFF;" d="M334.095,153.79c0,0.42-0.34,0.76-0.76,0.76c-0.42,0-0.76-0.34-0.76-0.76
			c0-0.42,0.34-0.76,0.76-0.76C333.755,153.03,334.095,153.37,334.095,153.79z"/>
		<path style="fill:#FFFFFF;" d="M324.366,125.548c0,1.134-0.919,2.054-2.054,2.054c-1.134,0-2.054-0.92-2.054-2.054
			c0-1.134,0.919-2.054,2.054-2.054C323.447,123.494,324.366,124.413,324.366,125.548z"/>
		<path style="fill:#FFFFFF;" d="M352.013,139.411c0,1.869-1.515,3.385-3.385,3.385c-1.869,0-3.385-1.515-3.385-3.385
			c0-1.869,1.515-3.385,3.385-3.385C350.498,136.026,352.013,137.542,352.013,139.411z"/>
		<circle style="fill:#FFFFFF;" cx="322.216" cy="173.768" r="1.957"/>
		<path style="fill:#FFFFFF;" d="M324.173,167.609c0,0.402-0.326,0.728-0.728,0.728c-0.402,0-0.728-0.326-0.728-0.728
			s0.326-0.728,0.728-0.728C323.847,166.881,324.173,167.207,324.173,167.609z"/>
		<circle style="fill:#FFFFFF;" cx="328.372" cy="166.382" r="0.5"/>
		<path style="fill:#FFFFFF;" d="M312.124,173.862c0,0.508-0.412,0.921-0.92,0.921c-0.508,0-0.921-0.412-0.921-0.921
			c0-0.508,0.412-0.92,0.921-0.92C311.712,172.942,312.124,173.354,312.124,173.862z"/>
		<path style="fill:#FFFFFF;" d="M369.633,149.391c0,1.187,0,2.149,0,2.149S369.633,150.578,369.633,149.391
			c0-1.187,0-2.149,0-2.149S369.633,148.204,369.633,149.391z"/>
		<path style="fill:#FFFFFF;" d="M185.74,172.682c0,0.481-0.39,0.872-0.872,0.872c-0.481,0-0.871-0.39-0.871-0.872
			c0-0.481,0.39-0.871,0.871-0.871C185.349,171.811,185.74,172.201,185.74,172.682z"/>
		<path style="fill:#FFFFFF;" d="M182.095,177.518c0,0.368-0.299,0.667-0.667,0.667c-0.368,0-0.667-0.298-0.667-0.667
			c0-0.368,0.299-0.667,0.667-0.667C181.796,176.851,182.095,177.15,182.095,177.518z"/>
		<circle style="fill:#FFFFFF;" cx="182.998" cy="186.482" r="0.903"/>
	</g>
	<g>
		<ellipse style="opacity:0.1;fill:#3828E2;" cx="250" cy="427.573" rx="181.906" ry="22.511"/>
		<g>
			<polygon style="fill:#2D1D3D;" points="197.081,344.942 188.53,364.352 267.125,409.923 328.73,367.728 331.262,353.803 
				321.135,337.382 			"/>
			<path style="opacity:0.2;fill:#38284C;" d="M205.842,361.147c0,0,58.727,23.045,104.137,3.741
				c-9.489,24.93-43.331,35.094-43.331,35.094l-60.806-13.908"/>
			<path style="fill:#FFCBB4;" d="M423.682,242.464c0,0,0,0.01-0.009,0.019c-0.409,1.209-18.338,53.293-38.409,78.864
				c-20.308,25.866-38.533,17.948-54.596-6.014c-12.238-18.262-21.545-38.837-23.924-44.261c1.284,3.293,4.073,11.953,1.009,19.138
				c-1.742,4.092-5.377,7.708-12.267,9.583c-4.958,1.494-33.422-8.394-39.18-7.965c-2.122,0.209-4.273,0.352-6.462,0.4
				c-12.21,0.285-36.287,13.028-45.166,9.26c-3.626-1.313-6.414-3.417-8.565-5.919c-8.213-9.535-7.128-24.914-7.128-24.914
				s-6.357,23.23-20.594,44.471c-16.064,23.972-34.297,31.89-54.606,6.024c-20.07-25.571-37.99-77.655-38.399-78.864
				c-0.009-0.01-0.009-0.019-0.009-0.019c-27.959-3.007-36.144-11.924-35.344-14.96c0.78-2.96,12.581,1.761,13.152,1.989
				c-0.638-0.447-14.551-10.287-11.42-11.762c3.197-1.513,14.931,4.777,14.931,4.777s-10.944-11.563-7.128-12.904
				c4.577-1.618,10.401,5.263,17.311,9.64c-0.038-5.034,0.695-11.287,6.766-13.951c6.062-2.655,7.898-0.2,7.727,1.656
				c-0.171,1.846-8.679,3.188-5.995,9.916c1.351,3.378,10.23,4.035,11.848,0.942c1.618-3.093-7.271-8.441-4.168-11.534
				c2.151-2.151,13.656,4.349,14.922,10.858c1.266,6.5-3.616,15.112-3.616,15.112l41.302,55.891c0,0,27.046-55.548,32.746-62.257
				c5.691-6.7,33.765-12.476,33.765-12.476l8.86,3.312l15.15-13.104l0.219-0.2h56.309l7.632,10.773l10.715-1.656
				c0,0,23.887,6.852,29.587,13.551c5.691,6.709,32.746,62.257,32.746,62.257l41.292-55.891c0,0-4.882-8.612-3.616-15.112
				c1.266-6.5,12.781-13.009,14.932-10.858c3.102,3.093-5.786,8.441-4.168,11.534c1.608,3.093,10.487,2.436,11.848-0.942
				c2.684-6.728-5.824-8.07-5.995-9.916c-0.171-1.856,1.656-4.311,7.727-1.656c6.072,2.665,6.795,8.917,6.766,13.951
				c6.909-4.378,12.733-11.258,17.301-9.64c3.816,1.342-7.128,12.904-7.128,12.904s11.734-6.29,14.941-4.777
				c3.121,1.475-10.782,11.315-11.42,11.762c0.571-0.228,12.371-4.949,13.152-1.989C459.826,230.54,451.632,239.457,423.682,242.464
				z"/>
			<path style="fill:#FF9688;" d="M192.287,258.632l-3.302,12.019c0,0-6.357,23.23-20.594,44.471
				c-16.064,23.972-34.297,31.89-54.606,6.024c-20.07-25.571-37.99-77.655-38.399-78.864c0.704,1.304,47.002,87.771,68.947,82.556
				C166.117,319.681,191.497,260.479,192.287,258.632z"/>
			<path style="fill:#FF9688;" d="M423.672,242.483c-0.409,1.209-18.338,53.293-38.409,78.864
				c-20.308,25.866-38.533,17.948-54.596-6.014c-12.238-18.262-21.545-38.837-23.924-44.261c1.284,3.293,4.073,11.953,1.009,19.138
				l-1.599-20.508l-3.807-13.066c0,0,39.046,75.618,60.982,70.165C385.092,321.384,423.082,243.691,423.672,242.483z"/>
			<path style="fill:#49C3DC;" d="M325.989,342.531c0,0-32.35,15.08-67.82,17.45c-35.47,2.37-79.33-13.68-79.33-13.68l9.26-69.09
				l0.88-6.56c0,0,1.25,4.27,3.61,5.74c2.05,1.28,4.94,0.44,8.57-7.17c11.18-23.44,1.02-56.02,1.02-56.02l1.9-0.87l13.23-6.06
				l4.25-1.95c0,0-2.08,30.75,29.34,31.77c31.9,1.04,29.92-32.88,29.92-32.88s1.89,0.58,4.91,1.76c3.32,1.29,8.02,3.31,13.09,6.08
				c0.74,0.41,1.49,0.83,2.24,1.27c-11.17,18.28-6.7,48.54-3.13,57.97c4.08,10.77,8.22-0.59,8.22-0.59l1.39,5.08v0.01l10.94,40.17
				L325.989,342.531z"/>
			<path style="fill:#FF9688;" d="M66.666,221.806c0,0-7.017,3.578-5.506,11.011C62.332,227.546,66.666,221.806,66.666,221.806z"/>
			<path style="fill:#FF9688;" d="M84.44,221.628c0,0-10.488,0.55-10.435,12.137C72.006,228.088,73.575,220.176,84.44,221.628z"/>
			<path style="fill:#FF9688;" d="M431.906,221.806c0,0,7.017,3.578,5.506,11.011C436.24,227.546,431.906,221.806,431.906,221.806z"
				/>
			<path style="fill:#FF9688;" d="M414.132,221.628c0,0,10.488,0.55,10.435,12.137C426.567,228.088,424.997,220.176,414.132,221.628
				z"/>
			<path style="fill:#34254D;" d="M286.958,396.841l-8.679,15.54l-8.203,14.694c0,0-36.287,3.102-96.621-6.186
				c-60.345-9.279-89.456-51.056-82.28-69.471c3.769-9.678,13.247-15.864,26.875-18.081c12.305-2.017,27.988-0.79,45.908,4.026
				C201.728,347.498,286.958,396.841,286.958,396.841z"/>
			<path style="opacity:0.2;fill:#38284C;" d="M278.279,412.382l-8.203,14.694c0,0-36.287,3.102-96.621-6.186
				c-60.345-9.279-89.456-51.056-82.28-69.471c3.769-9.678,13.247-15.864,26.875-18.081c-3.255,2.807-6.176,5.996-8.689,9.479
				c-1.418,1.97-2.731,4.073-3.321,6.424c-0.761,3.055-0.248,6.338,0.98,9.25c3.997,9.488,14.522,14.379,24.496,16.92
				c9.983,2.541,20.651,3.74,29.235,9.421c3.112,2.055,5.843,4.644,9.003,6.604c11.23,6.957,25.523,4.968,38.675,6.252
				c16.492,1.608,31.938,8.67,48.154,12.058C263.737,411.24,270.989,412.01,278.279,412.382z"/>
			<g>
				<polygon style="fill:#FFCBB4;" points="226.565,415.549 202.989,420.893 207.208,439.011 233.533,439.011 				"/>
				<path style="fill:#49C3DC;" d="M211.853,439.009c-1.608,5.463-7.176,11.001-13.504,14.037
					c-6.167,2.96-7.499,16.863-18.938,17.606c-0.286,0.019-0.59,0.029-0.895,0.029c-6.757,0.038-8.022-10.963-1.371-23.63
					c5.824-11.087,6.433-33.051,16.14-35.021c1.047-0.209,2.075-0.295,3.074-0.276c8.26,0.143,14.617,7.328,14.617,7.328
					C202.993,423.002,204.592,436.087,211.853,439.009z"/>
				<path style="fill:#FFC741;" d="M196.36,411.754c-3.312,2.246-7.946,7.099-9.945,17.158c-3.131,15.836-16.549,30.5-7.004,41.74
					c-0.286,0.019-0.59,0.029-0.895,0.029c-6.757,0.038-8.022-10.963-1.371-23.63c5.824-11.087,6.433-33.051,16.14-35.021
					C194.333,411.82,195.361,411.734,196.36,411.754z"/>
				<path style="fill:#FFC741;" d="M201.215,421.09c0,2.336-1.893,4.229-4.229,4.229c-2.335,0-4.229-1.893-4.229-4.229
					c0-2.335,1.893-4.229,4.229-4.229C199.322,416.862,201.215,418.755,201.215,421.09z"/>
				<path style="fill:#FFC741;" d="M205.842,449.936c-0.118,0-0.238-0.021-0.355-0.065c-5.213-1.978-5.273-7.254-5.273-7.478
					c0-0.553,0.448-1,1-1c0.551,0,0.999,0.446,1,0.997c0.002,0.192,0.093,4.135,3.982,5.611c0.517,0.195,0.776,0.772,0.581,1.289
					C206.626,449.69,206.246,449.936,205.842,449.936z M202.214,442.394h0.01H202.214z"/>
				<path style="fill:#FFC741;" d="M201.614,454.127c-0.118,0-0.238-0.021-0.355-0.066c-5.213-1.977-5.273-7.254-5.273-7.477
					c0-0.553,0.448-1,1-1c0.551,0,0.999,0.446,1,0.997c0.002,0.192,0.093,4.135,3.982,5.611c0.517,0.195,0.776,0.772,0.581,1.289
					C202.397,453.881,202.017,454.127,201.614,454.127z M197.986,446.584h0.01H197.986z"/>
			</g>
			<g>
				<polygon style="fill:#FFCBB4;" points="265.465,410.743 289.431,413.914 286.882,432.341 260.667,434.742 				"/>
				<path style="fill:#49C3DC;" d="M282.256,432.763c2.1,5.293,8.149,10.301,14.728,12.746c6.411,2.385,9.006,16.109,20.465,15.805
					c0.286-0.007,0.59-0.025,0.893-0.053c6.732-0.579,6.989-11.649-0.791-23.656c-6.811-10.509-9.422-32.326-19.268-33.402
					c-1.062-0.113-2.093-0.104-3.087,0.006c-8.213,0.896-13.888,8.631-13.888,8.631C289.619,416.014,289.22,429.191,282.256,432.763
					z"/>
				<path style="fill:#FFC741;" d="M295.198,404.208c3.503,1.934,8.561,6.345,11.469,16.18
					c4.563,15.484,19.263,28.863,10.783,40.926c0.286-0.007,0.59-0.025,0.893-0.053c6.732-0.579,6.989-11.649-0.791-23.656
					c-6.811-10.509-9.422-32.326-19.268-33.402C297.223,404.089,296.191,404.098,295.198,404.208z"/>
				<path style="fill:#FFC741;" d="M291.215,413.948c0.213,2.326,2.271,4.038,4.597,3.825c2.326-0.213,4.038-2.271,3.825-4.597
					c-0.213-2.326-2.271-4.038-4.597-3.825C292.715,409.565,291.002,411.623,291.215,413.948z"/>
				<path style="fill:#FFC741;" d="M289.148,443.101c-0.37,0-0.726-0.206-0.899-0.561c-0.242-0.496-0.036-1.095,0.46-1.337
					c3.784-1.847,3.458-5.907,3.454-5.948c-0.051-0.55,0.354-1.036,0.904-1.087c0.558-0.049,1.037,0.355,1.087,0.905
					c0.021,0.223,0.442,5.482-4.568,7.927C289.445,443.068,289.296,443.101,289.148,443.101z"/>
				<path style="fill:#FFC741;" d="M293.741,446.888c-0.37,0-0.726-0.206-0.9-0.561c-0.242-0.496-0.036-1.095,0.461-1.337
					c3.784-1.847,3.457-5.907,3.454-5.948c-0.051-0.55,0.354-1.036,0.904-1.087c0.559-0.055,1.037,0.355,1.087,0.905
					c0.02,0.223,0.442,5.482-4.568,7.927C294.038,446.855,293.889,446.888,293.741,446.888z"/>
			</g>
			<path style="fill:#34254D;" d="M342.23,419.205c-32.47,13.666-68.966,18.871-90.426,20.832c-2.427,0.219-4.663,0.4-6.671,0.542
				c-7.499,0.561-11.953,0.638-11.953,0.638s-5.662-4.73-7.042-12.457c-0.076-0.4-0.143-0.809-0.2-1.218
				c-1.123-7.442-0.514-15.816-0.514-15.816s4.825-3.055,12.6-7.975c1.827-1.161,3.826-2.417,5.957-3.769
				c21.603-13.656,57.518-36.315,82.585-51.922c38.066-23.696,65.445-20.755,73.715-3.664c0.914,1.894,1.58,3.921,1.979,6.062
				C406.019,370.452,387.215,400.276,342.23,419.205z"/>
			<path style="fill:#FFC741;" d="M251.804,440.037c-2.427,0.219-4.663,0.4-6.671,0.542c-8.213-14.37-8.222-28.416-7.109-36.829
				c1.827-1.161,3.826-2.417,5.957-3.769C242.192,419.862,247.017,432.566,251.804,440.037z"/>
			<path style="opacity:0.2;fill:#38284C;" d="M342.23,419.205c-49.8,20.955-109.05,22.012-109.05,22.012s-5.662-4.73-7.042-12.457
				c-0.076-0.4-0.143-0.809-0.2-1.218c18.11,1.132,36.477-1.856,53.274-8.717c9.402-3.835,18.338-8.869,28.074-11.743
				c9.517-2.807,19.519-3.474,29.216-5.567c12.847-2.788,25.143-8.108,35.963-15.579c8.384-5.786,16.321-13.637,17.929-23.696
				c0.209-1.294,0.333-2.693,1.161-3.721c0.761-0.952,1.97-1.409,3.083-1.913c2.998-1.38,5.634-3.521,7.623-6.148
				C406.019,370.452,387.215,400.276,342.23,419.205z"/>
			<polygon style="fill:#FF9688;" points="135.666,287.934 140.962,291.874 151.269,256.632 			"/>
			<polygon style="fill:#FF9688;" points="363.391,288.134 359.111,291.874 348.681,258.589 			"/>
			<path style="fill:#4D1F5C;" d="M96.707,235.216c-0.927,0.688-17.14,16.347-17.541,19.502c-0.401,3.155,2.248,8.969,6.677,4.684
				c4.428-4.286,15.714-16.714,15.714-19.143C101.556,237.83,98.146,234.148,96.707,235.216z"/>
			<circle style="fill:#49C3DC;" cx="84.804" cy="254.184" r="2.362"/>
			<path style="fill:#49C3DC;" d="M92.703,247.973c0-1.305-1.058-2.362-2.362-2.362c-1.305,0-2.362,1.058-2.362,2.362
				c0,1.305,1.058,2.362,2.362,2.362C91.646,250.336,92.703,249.278,92.703,247.973z"/>
			<path style="fill:#49C3DC;" d="M98.206,242.283c0-1.305-1.058-2.362-2.362-2.362c-1.305,0-2.362,1.058-2.362,2.362
				c0,1.305,1.058,2.362,2.362,2.362C97.148,244.645,98.206,243.588,98.206,242.283z"/>
			<path style="fill:#34254D;" d="M200.669,278.461c-7.079,6.077-10.69,3.26-12.57-1.25l0.88-6.56c0,0,4.38,14.93,12.18-1.43
				c11.18-23.44,1.02-56.02,1.02-56.02l1.9-0.87C208.44,222.368,218.529,263.13,200.669,278.461z"/>
			<path style="fill:#34254D;" d="M307.539,274.781v0.01c-9.61,13.99-16.52-3.71-17.18-27.83c-0.52-18.97,5.23-30.8,8.46-35.91
				c0.74,0.41,1.49,0.83,2.24,1.27c-11.17,18.28-6.7,48.54-3.13,57.97c4.08,10.77,8.22-0.59,8.22-0.59L307.539,274.781z"/>
			<path style="fill:#34254D;" d="M285.729,204.971c-0.26,11.42-4.23,36.15-33.79,36.55c-30.35,0.41-34.31-24.65-34.63-35.25
				l4.25-1.95c0,0-2.08,30.75,29.34,31.77c31.9,1.04,29.92-32.88,29.92-32.88S282.709,203.791,285.729,204.971z"/>
			<g>
				<path style="fill:#FF9688;" d="M229.915,210.277c0,0,6.623,11.793,21.594,11.059c14.971-0.734,17.923-11.059,17.923-11.059"/>
				<g>
					<g>
						<path style="fill:#FFCBB4;" d="M217.258,161.585c0,0-2.741-5.447-8.012-3.339c-5.271,2.109-6.819,24.776,8.012,19.68"/>
						<path style="fill:#FF9688;" d="M212.805,174.006c-1.917,0-3.368-0.809-3.883-2.163c-0.422-1.112-0.104-2.356,0.811-3.169
							c0.55-0.489,1.326-0.652,2.076-0.811c1.227-0.258,2.287-0.481,2.502-1.938c0.199-1.341-0.224-3.377-1.274-4.462
							c-0.523-0.54-1.143-0.773-1.846-0.693c-2.342,0.27-2.473,4.549-2.474,4.592c-0.007,0.276-0.235,0.541-0.512,0.488
							c-0.276-0.006-0.495-0.235-0.488-0.511c0.005-0.212,0.155-5.193,3.359-5.562c1.017-0.117,1.939,0.226,2.679,0.99
							c1.313,1.356,1.776,3.745,1.545,5.304c-0.317,2.145-1.963,2.491-3.286,2.77c-0.651,0.137-1.266,0.267-1.618,0.579
							c-0.602,0.535-0.814,1.347-0.54,2.066c0.361,0.951,1.463,1.519,2.948,1.519c0.276,0,0.5,0.224,0.5,0.5
							C213.305,173.783,213.082,174.006,212.805,174.006z"/>
						<path style="fill:#FF9688;" d="M210.835,166.067c-0.1,0-0.202-0.03-0.29-0.093c-0.225-0.16-0.277-0.472-0.117-0.697
							c0.859-1.206,1.797-1.875,2.788-1.988c1.12-0.13,1.859,0.518,1.89,0.545c0.207,0.183,0.227,0.499,0.044,0.706
							c-0.182,0.206-0.496,0.226-0.702,0.046c-0.026-0.021-0.467-0.388-1.134-0.301c-0.683,0.085-1.398,0.629-2.07,1.573
							C211.145,165.995,210.991,166.067,210.835,166.067z"/>
					</g>
					
						<rect x="209.928" y="174.93" transform="matrix(-0.7071 0.7071 -0.7071 -0.7071 484.9409 151.3733)" style="fill:#FFFFFF;" width="2.383" height="2.383"/>
					<g>
						<path style="fill:#FFCBB4;" d="M282.788,161.585c0,0,2.741-5.447,8.012-3.339c5.271,2.109,6.819,24.776-8.012,19.68"/>
						<path style="fill:#FF9688;" d="M287.24,174.006c-0.276,0-0.5-0.224-0.5-0.5c0-0.276,0.224-0.5,0.5-0.5
							c1.485,0,2.587-0.567,2.948-1.519c0.274-0.72,0.062-1.531-0.54-2.066c-0.352-0.313-0.967-0.442-1.618-0.579
							c-1.323-0.278-2.969-0.624-3.286-2.77c-0.23-1.56,0.233-3.949,1.546-5.304c0.74-0.764,1.662-1.108,2.679-0.99
							c3.205,0.369,3.355,5.35,3.359,5.562c0.006,0.276-0.212,0.504-0.488,0.511c-0.271,0.019-0.505-0.212-0.512-0.488
							c-0.001-0.043-0.132-4.322-2.474-4.592c-0.704-0.081-1.323,0.153-1.846,0.693c-1.051,1.084-1.473,3.121-1.275,4.462
							c0.215,1.456,1.275,1.679,2.503,1.938c0.75,0.158,1.526,0.321,2.076,0.811c0.915,0.813,1.233,2.057,0.811,3.169
							C290.609,173.198,289.157,174.006,287.24,174.006z"/>
						<path style="fill:#FF9688;" d="M289.211,166.067c-0.156,0-0.31-0.073-0.408-0.21c-0.672-0.943-1.388-1.487-2.07-1.573
							c-0.669-0.085-1.116,0.286-1.135,0.302c-0.209,0.179-0.524,0.154-0.703-0.053c-0.179-0.208-0.161-0.519,0.045-0.7
							c0.031-0.027,0.778-0.675,1.89-0.545c0.991,0.113,1.929,0.782,2.788,1.988c0.16,0.225,0.108,0.537-0.117,0.697
							C289.412,166.037,289.311,166.067,289.211,166.067z"/>
					</g>
					<g>
						<path style="fill:#4D1F5C;" d="M273.074,129.249l-21.374-3.142c0,0-10.661-5.425-4.388-16.913
							c0.827-1.508,2.042-2.754,3.54-3.728c9.467-6.221,30.119-2.21,33.271,7.352c0.147,0.409,0.241,0.827,0.314,1.257
							C286.782,128.757,273.074,129.249,273.074,129.249z"/>
						<path style="fill:#4D1F5C;" d="M251.016,125.942c-3.001-0.418-5.633-2.58-6.88-5.342c-1.247-2.762-1.171-6.031-0.059-8.85
							c0.485-1.229,1.162-2.391,2.059-3.361c0.876-0.947,1.944-1.697,3.055-2.352c2.181-1.287,4.662-2.254,7.188-2.072
							c-1.681,0.21-3.262,0.91-4.761,1.7c-1.322,0.697-2.61,1.475-3.75,2.442c-1.526,1.295-2.794,2.979-3.249,4.928
							c-0.265,1.133-0.247,2.316-0.103,3.471c0.192,1.541,0.62,3.08,1.481,4.372c1.581,2.373,4.377,3.6,7.075,4.523
							c1.223,0.418,2.458,0.8,3.704,1.144"/>
						<path style="opacity:0.3;fill:#4D1F5C;" d="M284.436,114.075c2.346,14.682-11.363,15.175-11.363,15.175l-21.374-3.142
							c0,0-10.661-5.425-4.388-16.913c0.827-1.508,2.042-2.754,3.54-3.728c-0.084,0.492-0.136,0.995-0.188,1.498
							c-0.44,4.409-0.167,9.32,2.869,12.535c1.801,1.896,4.346,2.922,6.922,3.362c2.576,0.429,5.215,0.325,7.771-0.168
							c6.273-1.204,11.959-4.87,15.897-9.876C284.269,113.227,284.363,113.646,284.436,114.075z"/>
						<path style="fill:#FF9AB4;" d="M251.349,128.245c0,0,2.268-8.01,12.963-5.92c10.694,2.09,10.135,11.144,10.135,11.144"/>
						<path style="fill:#FFCBB4;" d="M219.487,137.848c-3.358,7.246-3.848,40.294,7.695,51.149
							c11.543,10.855,38.475,13.408,48.479-3.643c10.004-17.051,8.44-38.409,5.387-47.506
							C275.66,121.803,227.182,121.245,219.487,137.848z"/>
						<path style="fill:#4D1F5C;" d="M283.637,166.506c0.295-11.14-0.079-30.117-5.641-35.679
							c-8.028-8.028-48.725-9.413-57.157,1.676c-6.42,8.443-4.683,28.566-3.488,37.694c-0.729,9.085-1.706,28.354,0.051,33.236
							c2.492,6.921,14.914,11.098,30.417,11.375c15.503,0.277,34.577-4.454,37.069-11.375
							C286.77,198.206,284.742,175.683,283.637,166.506z M269.222,186.649c-4.201,0-9.522-6.543-18.646-6.543
							c-9.124,0-13.554,5.992-17.153,5.989c-5.05-0.004-11.072-6.264-12.735-11.574c-2.394-7.645,0-22.663,0-24.294
							c0-2.748,3.876-18.292,11.628-12.478c7.752,5.814,23.809,7.475,32.668,0.277c8.859-7.198,14.119,6.091,14.95,9.966
							c0.465,2.169,2.126,20.095-0.298,28.859C278.159,182.188,272.897,186.649,269.222,186.649z"/>
						<path style="fill:#FF9688;" d="M257.815,179.506c-0.042,0.628-0.157,1.11-0.345,1.414c-2.304,3.801-11.499,3.047-13.164,0.272
							c-0.199-0.335-0.314-0.848-0.367-1.508c-0.146-2.178,0.471-5.875,1.529-9.299c0.314-1.016,0.67-2.011,1.047-2.932
							c1.215-2.901,2.712-5.09,4.231-5.09c1.76,0,3.372,2.241,4.608,5.173c0.356,0.838,0.681,1.738,0.963,2.66
							C257.396,173.642,257.983,177.37,257.815,179.506z"/>
						<path style="fill:#4D1F5C;" d="M230.158,163.624c-1.09,0.436,1.575,5.356,6.091,5.251c4.515-0.105,6.502-5.881,5.662-5.986
							c-0.84-0.105-3.036,3.465-7.005,3.343C231.33,166.122,231.208,163.204,230.158,163.624z"/>
						<path style="fill:#4D1F5C;" d="M270.733,163.624c1.09,0.436-1.575,5.356-6.091,5.251c-4.516-0.105-6.502-5.881-5.662-5.986
							c0.84-0.105,3.036,3.465,7.005,3.343C269.561,166.122,269.683,163.204,270.733,163.624z"/>
						<path style="fill:#FF9AB4;" d="M236.354,176.851c0,2.784-2.257,5.04-5.041,5.04s-5.04-2.257-5.04-5.04s2.257-5.04,5.04-5.04
							S236.354,174.067,236.354,176.851z"/>
						<circle style="fill:#FF9AB4;" cx="269.432" cy="176.851" r="5.041"/>
						<path style="fill:#4D1F5C;" d="M228.699,154.301c0.584,1.234,13.553-2.381,12.813-5.018
							C240.772,146.647,227.404,151.561,228.699,154.301z"/>
						<path style="fill:#4D1F5C;" d="M272.161,154.301c-0.584,1.234-13.553-2.381-12.813-5.018
							C260.088,146.647,273.457,151.561,272.161,154.301z"/>
						<path style="fill:#FFFFFF;" d="M251.061,184.691c0,0-3.771,1.601-8.574,1.506c5.386,4.305,14.353,2.889,16.518-0.254
							C255.64,186.782,251.061,184.691,251.061,184.691z"/>
						<path style="fill:#FF766C;" d="M257.815,179.506c-0.042,0.628-0.157,1.11-0.345,1.414c-2.304,3.801-11.499,3.047-13.164,0.272
							c-0.199-0.335-0.314-0.848-0.367-1.508c0.147,0.063,0.293,0.105,0.451,0.136c1.215,0.262,2.461-0.178,3.613-0.66
							c1.152-0.482,2.325-1.016,3.571-0.974c1.592,0.063,3.006,1.079,4.577,1.34C256.705,179.622,257.271,179.611,257.815,179.506z"
							/>
					</g>
					
						<rect x="287.734" y="174.93" transform="matrix(0.7071 0.7071 -0.7071 0.7071 209.1609 -152.7166)" style="fill:#FFFFFF;" width="2.383" height="2.383"/>
				</g>
				<path style="fill:#5C326A;" d="M220.556,185.684c-0.745,1.135-0.233,2.885,1.006,3.439"/>
				<path style="fill:#5C326A;" d="M226.999,188.959c-0.316,0.644-0.066,1.509,0.545,1.885"/>
				<path style="fill:#5C326A;" d="M220.841,194.444c-0.499,1.079-0.275,2.451,0.54,3.315"/>
				<path style="fill:#5C326A;" d="M225.062,197.156c-0.028,0.878,0.706,1.712,1.581,1.797"/>
				<path style="fill:#5C326A;" d="M231.986,194.006c-0.288,0.6-0.329,1.314-0.11,1.942c0.218,0.629,0.693,1.164,1.291,1.455"/>
				<path style="fill:#5C326A;" d="M229.542,202.932c-0.077,0.711-0.048,1.456,0.26,2.101c0.308,0.645,0.94,1.169,1.655,1.191"/>
				<path style="fill:#5C326A;" d="M275.398,191.295c0.554,1.389,0.288,3.07-0.666,4.221"/>
				<path style="fill:#5C326A;" d="M278.501,188.784c0.877,0.73,1.181,2.069,0.705,3.106"/>
				<path style="fill:#5C326A;" d="M279.08,196.635c0.139-0.061,0.308,0.012,0.401,0.132c0.093,0.12,0.125,0.275,0.145,0.425
					c0.175,1.302-0.423,2.679-1.493,3.441"/>
				<path style="fill:#5C326A;" d="M271.823,202.478c0.313,1.023-0.081,2.224-0.94,2.861"/>
				<path style="fill:#5C326A;" d="M270.418,190.19c0.754,0.655,1.152,1.697,1.028,2.688"/>
				<path style="fill:#5C326A;" d="M281.641,183.773c0.866,0.958,1.203,2.366,0.865,3.612"/>
				<path style="fill:#5C326A;" d="M275.07,197.976c0.041,0.669-0.409,1.27-0.909,1.716c-0.46,0.41-0.983,0.748-1.545,0.999"/>
				<path style="fill:#5C326A;" d="M266.598,204.544c0.139,0.619-0.022,1.277-0.325,1.834c-0.303,0.558-0.738,1.031-1.182,1.484"/>
				<path style="fill:#5C326A;" d="M238.595,192.249c-0.438,0.771-0.339,1.812,0.237,2.486"/>
				<path style="fill:#5C326A;" d="M237.613,202.718c-0.036,0.935,0.781,1.818,1.716,1.855"/>
			</g>
			<path style="opacity:0.2;fill:#38284C;" d="M325.989,342.531c0,0-32.35,15.08-67.82,17.45c-35.47,2.37-79.33-13.68-79.33-13.68
				l9.26-69.09l0.88-6.56c0,0,1.25,4.27,3.61,5.74c-1.37,7.42-1.62,15.04-0.71,22.52c0.94,7.73,3.38,15.74,9.22,20.87
				c11.22,9.86,29.27,5.06,42.62,11.75c7.99,4.01,13.69,11.87,21.99,15.19c6.75,2.69,14.54,1.98,21.25-0.81
				c6.71-2.78,12.47-7.49,17.54-12.69c5.36-5.51,10.05-11.66,13.98-18.26L325.989,342.531z"/>
			<g>
				<path style="fill:#FFC741;" d="M250.746,309.295c-13.833,0-25.086-11.254-25.086-25.086c0-13.832,11.253-25.086,25.086-25.086
					c13.833,0,25.087,11.254,25.087,25.086C275.833,298.041,264.579,309.295,250.746,309.295z M250.746,263.123
					c-11.627,0-21.086,9.459-21.086,21.086c0,11.627,9.459,21.086,21.086,21.086c11.627,0,21.087-9.459,21.087-21.086
					C271.833,272.582,262.373,263.123,250.746,263.123z"/>
				<rect x="248.746" y="261.123" style="fill:#FFC741;" width="4" height="46.172"/>
				<polygon style="fill:#FFC741;" points="268.063,299.608 250.746,286.703 233.43,299.608 231.04,296.401 250.746,281.715 
					270.453,296.401 				"/>
			</g>
			<path style="opacity:0.2;fill:#38284C;" d="M383.386,349.95c0.443,1.061,0.974,2.299,2.09,2.573
				c0.752,0.185,1.524-0.148,2.227-0.473c1.259-0.581,2.538-1.177,3.567-2.106c1.029-0.93,1.786-2.263,1.688-3.646
				c-0.33-4.641-7.109-9.722-11.519-8.594c-3.28,0.839-4.913,1.926-2.829,4.725C380.433,344.879,382.193,347.092,383.386,349.95z"/>
			<path style="opacity:0.2;fill:#38284C;" d="M115.011,349.654c-0.229,2.156,0.649,4.318,1.983,6.027
				c1.334,1.709,3.097,3.028,4.877,4.265c0.536,0.373,1.159,0.758,1.797,0.62c0.649-0.14,1.06-0.764,1.399-1.335
				c1.809-3.046,3.618-6.092,5.427-9.138c0.553-0.931,1.118-1.894,1.27-2.966c0.591-4.153-4.949-6.617-8.388-5.889
				C119.733,342.01,115.411,345.88,115.011,349.654z"/>
		</g>
	</g>
</g>
</svg>
