<?xml version="1.0" encoding="utf-8"?>
<!-- Generator: Adobe Illustrator 27.5.0, SVG Export Plug-In . SVG Version: 6.00 Build 0)  -->
<svg version="1.1" xmlns="http://www.w3.org/2000/svg" xmlns:xlink="http://www.w3.org/1999/xlink" x="0px" y="0px"
	 viewBox="0 0 500 500" style="enable-background:new 0 0 500 500;" xml:space="preserve">
<g id="BACKGROUND">
	<rect style="fill:#FFFFFF;" width="500" height="500"/>
	<rect style="fill:#FFFFFF;" width="500" height="500"/>
</g>
<g id="OBJECTS">
	<g>
		<g>
			<g style="opacity:0.1;">
				<circle style="fill:#F4CE2C;" cx="250" cy="187.766" r="156.673"/>
			</g>
			<g>
				<g>
					<g>
						<path style="fill:#2D3962;" d="M359.743,241.405c-0.338,0-0.611-0.274-0.611-0.612v-6.377c0-0.338,0.273-0.612,0.611-0.612
							c0.338,0,0.611,0.274,0.611,0.612v6.377C360.354,241.131,360.081,241.405,359.743,241.405z"/>
					</g>
					<g>
						<path style="fill:#2D3962;" d="M362.931,238.217h-6.377c-0.338,0-0.611-0.274-0.611-0.612c0-0.338,0.273-0.612,0.611-0.612
							h6.377c0.338,0,0.611,0.274,0.611,0.612C363.543,237.943,363.269,238.217,362.931,238.217z"/>
					</g>
				</g>
				<g>
					<path style="fill:#2D3962;" d="M307.441,79.952c-1.263,0-2.289-1.028-2.289-2.291c0-1.263,1.026-2.29,2.289-2.29
						s2.29,1.028,2.29,2.29C309.731,78.924,308.704,79.952,307.441,79.952z M307.441,76.595c-0.588,0-1.066,0.479-1.066,1.067
						c0,0.588,0.479,1.067,1.066,1.067c0.589,0,1.067-0.479,1.067-1.067C308.508,77.073,308.03,76.595,307.441,76.595z"/>
				</g>
				<g>
					<g>
						<path style="fill:#2D3962;" d="M178.977,88.556c-0.338,0-0.612-0.274-0.612-0.612v-6.377c0-0.338,0.274-0.612,0.612-0.612
							c0.338,0,0.612,0.274,0.612,0.612v6.377C179.589,88.282,179.315,88.556,178.977,88.556z"/>
					</g>
					<g>
						<path style="fill:#2D3962;" d="M182.165,85.368h-6.377c-0.338,0-0.612-0.274-0.612-0.612s0.274-0.612,0.612-0.612h6.377
							c0.338,0,0.612,0.274,0.612,0.612S182.503,85.368,182.165,85.368z"/>
					</g>
				</g>
				<g>
					<g>
						<path style="fill:#2D3962;" d="M174.106,188.733c-0.338,0-0.612-0.274-0.612-0.612v-6.377c0-0.338,0.274-0.612,0.612-0.612
							c0.338,0,0.612,0.274,0.612,0.612v6.377C174.717,188.459,174.443,188.733,174.106,188.733z"/>
					</g>
					<g>
						<path style="fill:#2D3962;" d="M177.294,185.545h-6.377c-0.338,0-0.612-0.274-0.612-0.612c0-0.338,0.274-0.612,0.612-0.612
							h6.377c0.338,0,0.612,0.274,0.612,0.612C177.906,185.271,177.632,185.545,177.294,185.545z"/>
					</g>
				</g>
				<g>
					<path style="fill:#2D3962;" d="M328.245,177.588c-1.263,0-2.29-1.028-2.29-2.29s1.027-2.291,2.29-2.291s2.29,1.028,2.29,2.291
						S329.507,177.588,328.245,177.588z M328.245,174.231c-0.589,0-1.067,0.479-1.067,1.067s0.478,1.067,1.067,1.067
						c0.589,0,1.067-0.479,1.067-1.067S328.834,174.231,328.245,174.231z"/>
				</g>
				<g>
					<path style="fill:#2D3962;" d="M134.9,251.705c-1.263,0-2.291-1.027-2.291-2.29s1.028-2.29,2.291-2.29
						c1.263,0,2.29,1.028,2.29,2.29S136.162,251.705,134.9,251.705z M134.9,248.349c-0.588,0-1.067,0.479-1.067,1.067
						c0,0.588,0.479,1.066,1.067,1.066c0.588,0,1.067-0.478,1.067-1.066C135.966,248.827,135.488,248.349,134.9,248.349z"/>
				</g>
				<g>
					<path style="fill:#2D3962;" d="M124.228,159.602c-1.263,0-2.291-1.027-2.291-2.29s1.028-2.29,2.291-2.29s2.29,1.028,2.29,2.29
						S125.491,159.602,124.228,159.602z M124.228,156.245c-0.588,0-1.067,0.479-1.067,1.067s0.479,1.066,1.067,1.066
						c0.588,0,1.067-0.478,1.067-1.066S124.816,156.245,124.228,156.245z"/>
				</g>
				<g>
					<g>
						<path style="fill:#2D3962;" d="M361.004,135.442c-0.338,0-0.611-0.274-0.611-0.612v-6.377c0-0.338,0.273-0.612,0.611-0.612
							s0.611,0.274,0.611,0.612v6.377C361.616,135.168,361.342,135.442,361.004,135.442z"/>
					</g>
					<g>
						<path style="fill:#2D3962;" d="M364.193,132.253h-6.377c-0.338,0-0.611-0.274-0.611-0.612c0-0.338,0.273-0.612,0.611-0.612
							h6.377c0.338,0,0.611,0.274,0.611,0.612C364.804,131.979,364.531,132.253,364.193,132.253z"/>
					</g>
				</g>
			</g>
		</g>
		<g>
			<g>
				<path style="fill:#2D3962;" d="M215.528,277.53c0,0-62.435,12.258-84.809,41.977c-4.242,5.634-5.313,12.956-4.312,20.003
					c5.117,35.991,121.271,1.46,121.271,1.46s117.605,35.364,125.408-3.431c1.473-7.323,1.243-16.257-2.279-22.028
					c-15.263-25.01-79.221-37.496-79.221-37.496L215.528,277.53z"/>
			</g>
			<g>
				<path style="fill:#2D3962;" d="M290.107,160.722c0,0,0.807-29.699-0.906-37.594c-3.819-17.607-20.174-30.188-42.731-29.123
					c-22.557,1.065-33.701,12.753-36.241,30.61c-1.083,7.609-0.336,37.176-0.336,37.176
					C209.235,168.805,291.348,167.579,290.107,160.722z"/>
			</g>
			<g>
				<path style="fill:#6B8DF2;" d="M234.048,177.669c17.922-2.371,17.981-2.982,36.733,1.186
					c17.751,3.946,38.439,23.217,43.776,41.729c-7.086,2.923-20.491,9.685-20.491,9.685s2.509,47.202,1.431,48.608
					c-1.492,1.945-63.2,4.329-87.143-0.833c1.477-16.196,2.139-46.825,2.139-46.825s-24.385-10.18-24.777-11.422
					C185.278,218.411,206.548,181.307,234.048,177.669z"/>
			</g>
			<g style="opacity:0.09;">
				<g>
					<path style="fill:#2D3962;" d="M294.789,244.958c0.644,13.984,1.388,33.034,0.709,33.919c-1.492,1.945-63.2,4.329-87.143-0.833
						c0,0,40.734-5.186,58.473-14.901C284.567,253.429,294.789,244.958,294.789,244.958z"/>
				</g>
			</g>
			<g>
				<g>
					<path style="fill:#F4D1BB;" d="M280.663,118.873c-0.996-7.865-7.901-13.62-15.819-13.238l-34.195,1.654
						c-7.8,0.377-14.046,6.6-14.452,14.399l-0.032,0.607c-0.017,0.321-0.045,0.642-0.081,0.961
						c-0.495,4.388-3.621,40.239,25.413,46.683l-0.582,7.881l10.347,0.57l10.26-0.875l-0.885-7.7
						C282.711,163.944,282.845,136.105,280.663,118.873z"/>
				</g>
				<g style="opacity:0.25;">
					<path style="fill:#D1AA95;" d="M277.249,155.66c-3.142,6.662-8.335,11.953-16.613,14.155l0.885,7.7l-10.26,0.875l-10.347-0.57
						c0,0,15.257-8.362,20.245-11.013C266.11,164.178,277.249,155.66,277.249,155.66z"/>
				</g>
				<g>
					<path style="fill:#2D3962;" d="M241.79,140.398c-0.021,0-0.043,0-0.064-0.001c-0.928-0.017-1.793-0.394-2.437-1.061
						c-0.644-0.668-0.99-1.546-0.973-2.474c0.006-0.355,0.305-0.633,0.655-0.631c0.355,0.006,0.638,0.299,0.631,0.655
						c-0.011,0.584,0.207,1.137,0.612,1.557c0.405,0.42,0.951,0.658,1.535,0.668c0.575-0.012,1.137-0.207,1.558-0.612
						c0.42-0.405,0.658-0.95,0.668-1.534c0.006-0.355,0.311-0.647,0.654-0.632c0.355,0.006,0.638,0.299,0.632,0.654
						c-0.017,0.928-0.394,1.794-1.061,2.438C243.547,140.055,242.693,140.398,241.79,140.398z"/>
				</g>
				<g>
					<path style="fill:#2D3962;" d="M258.585,140.398c-0.021,0-0.042,0-0.064-0.001c-1.915-0.035-3.444-1.621-3.41-3.535
						c0.007-0.355,0.327-0.599,0.655-0.631c0.355,0.006,0.638,0.299,0.632,0.655c-0.011,0.584,0.206,1.137,0.612,1.557
						c0.405,0.42,0.95,0.658,1.534,0.668c1.173,0.012,2.203-0.941,2.226-2.147c0.007-0.355,0.324-0.613,0.655-0.631
						c0.355,0.006,0.638,0.299,0.632,0.655C262.022,138.882,260.471,140.398,258.585,140.398z"/>
				</g>
				<g>
					<path style="fill:#2D3962;" d="M249.918,150.23c-1.471,0-2.893-0.354-4.072-1.023c-0.309-0.175-0.418-0.568-0.242-0.877
						c0.175-0.308,0.568-0.416,0.877-0.242c1.157,0.656,2.607,0.953,4.087,0.829c1.35-0.111,2.643-0.569,3.64-1.29
						c0.291-0.208,0.691-0.142,0.898,0.145c0.208,0.288,0.143,0.69-0.145,0.898c-1.203,0.868-2.686,1.396-4.289,1.529
						C250.42,150.22,250.168,150.23,249.918,150.23z"/>
				</g>
				<g>
					<g>
						<path style="fill:#F4D1BB;" d="M218.012,136.638c-3.233-0.609-9.325-1.611-11.612,1.169c-1.94,2.358-1.252,5.951,1.304,7.77
							c4.173,2.97,11.008,3.13,13.064,3.313"/>
					</g>
					<g>
						<g>
							<path style="fill:#2D3962;" d="M208.909,141.065c-0.216,0-0.427-0.109-0.548-0.307c-0.186-0.302-0.092-0.699,0.211-0.885
								c2.679-1.648,4.941-0.982,5.036-0.953c0.34,0.104,0.531,0.464,0.426,0.803c-0.103,0.338-0.46,0.53-0.799,0.428
								c-0.079-0.023-1.832-0.509-3.989,0.818C209.141,141.033,209.025,141.064,208.909,141.065z"/>
						</g>
						<g>
							<path style="fill:#2D3962;" d="M212.661,143.719c-0.165,0-0.33-0.064-0.456-0.19c-0.038-0.039-0.969-0.984-2.11-2.932
								c-0.179-0.307-0.077-0.701,0.23-0.88c0.306-0.179,0.701-0.077,0.88,0.23c1.05,1.793,1.905,2.669,1.913,2.677
								c0.249,0.253,0.247,0.66-0.005,0.909C212.988,143.657,212.824,143.719,212.661,143.719z"/>
						</g>
					</g>
				</g>
				<g>
					<path style="fill:#2D3962;" d="M235.949,131.874c1.263-0.036,2.584-0.077,3.966-0.126c1.243-0.044,2.537-0.093,3.881-0.149
						c1.425-0.059,2.907-0.125,4.45-0.197c21.129-0.998,33.434-3.227,37.12-3.983c0.644-0.132,1.047-0.851,0.863-1.551
						c-5.048-19.172-21.297-29.641-40.016-28.757c-18.667,0.881-31.121,13.031-34.396,32.514c-0.149,0.89,0.406,1.743,1.214,1.897
						c2.023,0.384,4.136,0.603,15.044,0.505l3.512-9.653L235.949,131.874z"/>
				</g>
				<g>
					<path style="fill:#2D3962;" d="M250.538,179.193c-5.638,0-9.676-0.729-9.74-0.74c-0.349-0.064-0.58-0.4-0.515-0.749
						c0.064-0.35,0.403-0.58,0.749-0.516c0.1,0.018,9.985,1.797,20.362-0.304c0.344-0.07,0.688,0.154,0.759,0.503
						c0.07,0.348-0.155,0.688-0.503,0.758C257.715,178.942,253.851,179.193,250.538,179.193z"/>
				</g>
				<g>
					<path style="fill:#2D3962;" d="M254.424,171.788c-0.34,0-0.624-0.267-0.642-0.61c-0.018-0.355,0.255-0.657,0.609-0.676
						c4.58-0.235,13.075-1.591,18.514-8.029c0.23-0.271,0.635-0.305,0.906-0.076c0.271,0.229,0.306,0.635,0.076,0.906
						c-5.751,6.809-14.642,8.238-19.43,8.484C254.447,171.788,254.436,171.788,254.424,171.788z"/>
				</g>
				<g>
					<g>
						<path style="fill:#F4D1BB;" d="M278.62,136.36c3.213-0.705,9.273-1.886,11.641,0.824c2.009,2.3,1.428,5.911-1.073,7.805
							c-4.083,3.093-10.911,3.455-12.96,3.699"/>
					</g>
					<g>
						<g>
							<path style="fill:#2D3962;" d="M287.831,140.515c-0.108,0-0.219-0.028-0.32-0.086c-2.225-1.281-3.99-0.706-4.007-0.701
								c-0.336,0.113-0.703-0.066-0.816-0.402c-0.114-0.337,0.066-0.702,0.402-0.816c0.094-0.032,2.337-0.765,5.064,0.803
								c0.308,0.177,0.413,0.57,0.236,0.878C288.27,140.4,288.053,140.515,287.831,140.515z"/>
						</g>
						<g>
							<path style="fill:#2D3962;" d="M284.161,143.28c-0.157,0-0.315-0.057-0.44-0.173c-0.259-0.242-0.273-0.649-0.032-0.909
								c0.009-0.009,0.837-0.911,1.833-2.733c0.17-0.311,0.561-0.427,0.873-0.256c0.311,0.17,0.426,0.561,0.256,0.873
								c-1.082,1.98-1.983,2.953-2.022,2.994C284.503,143.212,284.332,143.28,284.161,143.28z"/>
						</g>
					</g>
				</g>
				<g style="opacity:0.42;">
					<path style="fill:#E5899D;" d="M264.72,146.75c0,1.664-1.349,3.013-3.013,3.013c-1.664,0-3.013-1.349-3.013-3.013
						c0-1.664,1.349-3.013,3.013-3.013C263.372,143.737,264.72,145.086,264.72,146.75z"/>
				</g>
				<g style="opacity:0.42;">
					<path style="fill:#E5899D;" d="M243.053,146.765c0,1.664-1.349,3.013-3.013,3.013c-1.664,0-3.013-1.349-3.013-3.013
						c0-1.664,1.349-3.013,3.013-3.013C241.704,143.752,243.053,145.101,243.053,146.765z"/>
				</g>
			</g>
			<g>
				<path style="fill:#F4D1BB;" d="M190.168,219.059c0,0-23.654,35.742-11.729,49.303c10.336,11.754,60.531-19.663,71.494-27.187
					c1.148-0.788,1.828-1.97,1.868-3.243c0.211-6.767,0.805-28.431-0.225-28.547c-8.735-0.979-11.312,24.068-11.312,24.068
					l-39.141,15.89l9.989-21.32L190.168,219.059z"/>
			</g>
			<g style="opacity:0.25;">
				<path style="fill:#D1AA95;" d="M206.338,265.446c-12.402,5.224-23.599,7.806-27.899,2.916c-2.236-2.543-3.221-5.865-3.346-9.586
					c0,0,8.279,3.591,13.546,4.762C193.907,264.708,206.338,265.446,206.338,265.446z"/>
			</g>
			<g>
				<path style="fill:#F4D1BB;" d="M311.844,218.472c0,0,19.892,34.671,8.702,49.749c-9.672,13.033-55.854-19.629-66.439-27.199
					c-1.108-0.793-1.763-1.977-1.796-3.251c-0.176-6.768-0.662-28.434,0.336-28.546c8.463-0.941,10.855,24.116,10.855,24.116
					l37.838,16.056l-8.715-23.879L311.844,218.472z"/>
			</g>
			<g style="opacity:0.25;">
				<path style="fill:#D1AA95;" d="M323.838,253.066c0.46,5.756-0.319,11.147-3.292,15.154c-4.068,5.482-14.595,2.879-26.216-2.539
					c0,0,14.162,1.058,22.844-3.423C322.637,259.439,323.838,253.066,323.838,253.066z"/>
			</g>
			<g>
				<path style="fill:#6B8DF2;" d="M210.071,234.023c0,0-25.605-13.412-26.01-14.654c-0.452-1.385,23.079-37,50.885-41.699
					L210.071,234.023z"/>
			</g>
			<g>
				<path style="fill:#6B8DF2;" d="M293.596,235.488c0,0,17.557-11.527,25.091-16.406c-10.491-16.907-30.155-36.281-47.906-40.226
					L293.596,235.488z"/>
			</g>
			<g>
				<path style="fill:#F4D1BB;" d="M238.639,334.881c-15.09-7.447-50.564-22.796-50.842-24.97c-0.181-1.419,0.956-2.722,2.313-3.259
					c1.357-0.537,2.887-0.484,4.364-0.423c7.522,0.314,15.044,0.627,22.567,0.941c3.348,0.14,6.717,0.282,10,0.984
					c3.713,0.795,6.345,3.797,9.676,5.608c3.378,1.837,7.451,2.491,10.622,4.645L238.639,334.881z"/>
			</g>
			<g style="opacity:0.25;">
				<g>
					<path style="fill:#D1AA95;" d="M241.426,329.604l-2.787,5.277c-15.09-7.447-50.564-22.796-50.842-24.97
						c-0.181-1.419,0.956-2.722,2.313-3.259c1.357-0.537,2.887-0.484,4.364-0.423c0,0,9.388,2.298,11.956,4.865
						c2.567,2.567,15.974,4.849,21.393,7.416C233.243,321.078,241.426,329.604,241.426,329.604z"/>
				</g>
			</g>
			<g>
				<path style="fill:#FFFFFF;" d="M336.999,324.419c-0.021,0-0.04-0.001-0.061-0.004c-14.608-1.739-62.054-4.085-62.531-4.108
					c-0.276-0.014-0.488-0.248-0.475-0.523c0.013-0.275,0.245-0.503,0.523-0.475c0.479,0.023,47.958,2.37,62.602,4.114
					c0.273,0.032,0.47,0.281,0.437,0.556C337.464,324.233,337.248,324.419,336.999,324.419z"/>
			</g>
			<g>
				<path style="fill:#F4D1BB;" d="M243.376,336.428c16.716-1.934,55.286-4.448,56.28-6.403c0.648-1.275,0.016-2.885-1.082-3.848
					c-1.097-0.963-2.556-1.428-3.967-1.867c-7.189-2.236-14.378-4.472-21.567-6.709c-3.2-0.995-6.42-1.995-9.748-2.439
					c-3.764-0.501-7.253,1.44-10.999,2.025c-3.799,0.593-7.855-0.162-11.566,0.799L243.376,336.428z"/>
			</g>
			<g style="opacity:0.25;">
				<g>
					<path style="fill:#D1AA95;" d="M298.574,326.178c1.097,0.963,1.73,2.572,1.082,3.848c-0.993,1.954-39.564,4.468-56.28,6.403
						l-0.958-6.664c0,0,10.846-2.037,14.103-1.882c3.257,0.155,18.305,0.776,22.648-0.465
						C283.513,326.177,298.574,326.178,298.574,326.178z"/>
				</g>
			</g>
			<g>
				<path style="fill:#2D3962;" d="M175.309,318.283c0,0,34.574-6.653,68.897-3.841c5.857,0.48,3.196,26.91,3.196,26.91
					s-24.406,6.827-63.832,9.387"/>
			</g>
			<g>
				<path style="fill:#FFFFFF;" d="M247.314,341.845c-0.016,0-0.031-0.001-0.047-0.002c-0.275-0.026-0.477-0.271-0.451-0.545
					c0.02-0.215,1.979-21.49-1.725-25.91c-0.356-0.425-0.735-0.647-1.16-0.683c-33.864-2.772-78.996,5.744-79.448,5.83
					c-0.273,0.048-0.533-0.126-0.585-0.397c-0.052-0.272,0.126-0.533,0.397-0.585c0.453-0.086,45.715-8.631,79.717-5.844
					c0.695,0.057,1.316,0.405,1.844,1.036c3.97,4.738,2.039,25.754,1.954,26.647C247.787,341.651,247.569,341.845,247.314,341.845z"
					/>
			</g>
			<g>
				<path style="fill:#2D3962;" d="M239.355,95.128c0,0-3.371-1.884-3.918-6.188c-0.709-5.581,2.341-13.89,13.419-13.593
					c9.144,0.245,12.264,5.688,12.224,10.59s-3.24,9.262-3.24,9.262L239.355,95.128z"/>
			</g>
			<g>
				<path style="fill:#6B8DF2;" d="M259.815,97.636l-22.397,0.526c-1.142,0.027-2.092-0.803-2.121-1.854l-0.048-1.735
					c-0.029-1.051,0.873-1.924,2.015-1.951l22.397-0.526c1.142-0.027,2.092,0.803,2.121,1.854l0.048,1.735
					C261.859,96.736,260.957,97.609,259.815,97.636z"/>
			</g>
			<g>
				<path style="fill:#2D3962;" d="M194.02,252.964c-0.255,0-0.497-0.153-0.597-0.404c-0.132-0.33,0.028-0.704,0.358-0.837
					l22.484-8.993c0.33-0.13,0.704,0.029,0.836,0.358c0.132,0.33-0.028,0.704-0.358,0.836l-22.484,8.994
					C194.18,252.949,194.099,252.964,194.02,252.964z"/>
			</g>
			<g>
				<path style="fill:#2D3962;" d="M308.182,252.903c-0.084,0-0.168-0.017-0.25-0.051l-20.373-8.595
					c-0.327-0.138-0.48-0.516-0.343-0.843c0.139-0.328,0.517-0.479,0.843-0.343l20.373,8.595c0.327,0.139,0.48,0.516,0.343,0.843
					C308.671,252.755,308.433,252.903,308.182,252.903z"/>
			</g>
			<g>
				<path style="fill:#2D3962;" d="M210.452,237.94c-0.003,0-0.007,0-0.011,0c-0.355-0.006-0.638-0.298-0.632-0.654l0.284-17.19
					c0.006-0.355,0.253-0.648,0.654-0.632c0.355,0.006,0.638,0.298,0.632,0.654l-0.284,17.19
					C211.089,237.66,210.803,237.94,210.452,237.94z"/>
			</g>
			<g>
				<path style="fill:#2D3962;" d="M294.21,240.487c-0.34,0-0.624-0.267-0.642-0.611l-0.99-19.737
					c-0.018-0.355,0.256-0.657,0.61-0.675c0.322-0.014,0.657,0.255,0.675,0.61l0.99,19.737c0.018,0.355-0.256,0.657-0.61,0.675
					C294.232,240.487,294.221,240.487,294.21,240.487z"/>
			</g>
			<g style="opacity:0.38;">
				<circle style="fill:#FFFFFF;" cx="219.173" cy="197.848" r="4.494"/>
			</g>
			<g style="opacity:0.38;">
				<path style="fill:#FFFFFF;" d="M247.57,189.814c0,2.482-2.012,4.494-4.495,4.494c-2.482,0-4.495-2.012-4.495-4.494
					s2.012-4.495,4.495-4.495C245.558,185.319,247.57,187.331,247.57,189.814z"/>
			</g>
			<g style="opacity:0.38;">
				<path style="fill:#FFFFFF;" d="M234.514,216.73c0,2.482-2.012,4.495-4.494,4.495c-2.482,0-4.495-2.012-4.495-4.495
					c0-2.482,2.012-4.494,4.495-4.494C232.502,212.236,234.514,214.248,234.514,216.73z"/>
			</g>
			<g style="opacity:0.38;">
				<path style="fill:#FFFFFF;" d="M277.701,197.648c0,2.482-2.012,4.495-4.495,4.495c-2.482,0-4.495-2.012-4.495-4.495
					c0-2.482,2.012-4.495,4.495-4.495C275.688,193.153,277.701,195.165,277.701,197.648z"/>
			</g>
			<g style="opacity:0.38;">
				<path style="fill:#FFFFFF;" d="M281.316,222.957c0,2.482-2.012,4.495-4.495,4.495c-2.482,0-4.495-2.012-4.495-4.495
					c0-2.482,2.012-4.494,4.495-4.494C279.304,218.462,281.316,220.475,281.316,222.957z"/>
			</g>
			<g style="opacity:0.38;">
				<circle style="fill:#FFFFFF;" cx="249.704" cy="254.694" r="4.495"/>
			</g>
			<g style="opacity:0.38;">
				<path style="fill:#FFFFFF;" d="M278.504,268.152c0,2.482-2.012,4.495-4.495,4.495c-2.482,0-4.495-2.012-4.495-4.495
					c0-2.482,2.012-4.495,4.495-4.495C276.492,263.658,278.504,265.67,278.504,268.152z"/>
			</g>
			<g style="opacity:0.38;">
				<path style="fill:#FFFFFF;" d="M233.911,270.964c0,2.482-2.012,4.495-4.494,4.495c-2.482,0-4.495-2.012-4.495-4.495
					c0-2.482,2.012-4.495,4.495-4.495C231.899,266.47,233.911,268.482,233.911,270.964z"/>
			</g>
			<g style="opacity:0.38;">
				<path style="fill:#FFFFFF;" d="M202.375,214.721c0,2.482-2.012,4.495-4.495,4.495c-2.482,0-4.494-2.012-4.494-4.495
					s2.012-4.494,4.494-4.494C200.363,210.227,202.375,212.239,202.375,214.721z"/>
			</g>
			<g style="opacity:0.38;">
				<path style="fill:#FFFFFF;" d="M303.813,208.896c0,2.482-2.012,4.495-4.495,4.495c-2.482,0-4.495-2.012-4.495-4.495
					c0-2.482,2.012-4.495,4.495-4.495C301.801,204.402,303.813,206.414,303.813,208.896z"/>
			</g>
		</g>
		<g>
			<g>
				<polygon style="fill:#97DDCF;" points="77.763,461.615 136.903,415.238 362.138,415.238 416.245,463.183 				"/>
			</g>
			<g style="opacity:0.31;">
				<path style="fill:#59C1AD;" d="M383.703,434.348l32.542,28.836l-138.926-0.644c0,0,64.158-6.526,78.414-12.07
					C369.989,444.925,383.703,434.348,383.703,434.348z"/>
			</g>
			<g style="opacity:0.43;">
				<ellipse style="fill:#59C1AD;" cx="246.008" cy="439.577" rx="74.21" ry="6.885"/>
			</g>
		</g>
		<g>
			<g style="opacity:0.7;">
				<path style="fill:#DBDBDB;" d="M464.316,434.261c-0.169,3.852-10,3.75-22.336,3.75c-12.336,0-22.131,0.103-22.336-3.75
					c-0.223-4.19,10-4.884,22.336-4.884C454.316,429.378,464.522,429.562,464.316,434.261z"/>
			</g>
			<g>
				<g>
					<path style="fill:#59C1AD;" d="M434.923,391.149c-9.201-3.619-17.8-17.206-16.824-34.516
						c2.203-39.104,7.973-91.206,13.702-101.952c1.768-3.316,4.263-6.441,7.664-7.654c5.005-1.784,10.689,1.225,13.706,5.826
						c3.017,4.602,3.862,10.415,4.06,16.019c0.446,12.586,7.183,69.006,8.05,85.128c0.585,10.879-2.701,25.657-11.013,33.498
						C448.696,392.755,439.472,392.938,434.923,391.149z"/>
				</g>
				<g style="opacity:0.5;">
					<g>
						<path style="fill:#4BAF9C;" d="M461.522,314.17c1.706,16.347,3.359,32.386,3.759,39.831
							c0.585,10.879-2.701,25.657-11.013,33.498c-5.572,5.256-14.796,5.439-19.345,3.65c-5.219-2.053-10.245-7.314-13.439-14.643
							c0,0,18.505-2.489,27.886-16.56C458.75,345.875,461.522,314.17,461.522,314.17z"/>
					</g>
				</g>
				<g>
					<path style="fill:#2D3962;" d="M441.805,400.753c-0.427,0-0.773-0.343-0.777-0.771l-0.986-108.158
						c-0.004-0.429,0.341-0.78,0.77-0.784c0.002,0,0.005,0,0.007,0c0.427,0,0.773,0.343,0.777,0.771l0.986,108.158
						c0.004,0.429-0.341,0.78-0.771,0.784C441.81,400.753,441.807,400.753,441.805,400.753z"/>
				</g>
				<g>
					<g>
						<path style="fill:#6B8DF2;" d="M426.899,401.341l-2.592,31.415h35.326l-2.642-31.087c-0.311-1.44-1.576-2.472-3.049-2.488
							l-23.941-0.262C428.529,398.903,427.241,399.908,426.899,401.341z"/>
					</g>
					<g style="opacity:0.09;">
						<path style="fill:#2D3962;" d="M458.078,414.46l1.555,18.295h-35.326c0,0,15.731-3.903,21.171-6.623
							C450.919,423.412,458.078,414.46,458.078,414.46z"/>
					</g>
					<g>
						<path style="fill:#2D3962;" d="M426.939,405.424c-0.429,0-0.776-0.346-0.777-0.774c-0.002-0.43,0.345-0.779,0.774-0.78
							l29.865-0.107c0.001,0,0.002,0,0.003,0c0.429,0,0.776,0.346,0.777,0.774c0.002,0.43-0.345,0.779-0.774,0.78l-29.865,0.106
							C426.941,405.424,426.94,405.424,426.939,405.424z"/>
					</g>
					<g>
						<path style="fill:#2D3962;" d="M459.183,428.957h-34.432c-0.43,0-0.777-0.348-0.777-0.777c0-0.43,0.348-0.777,0.777-0.777
							h34.432c0.43,0,0.777,0.348,0.777,0.777C459.961,428.61,459.613,428.957,459.183,428.957z"/>
					</g>
				</g>
			</g>
		</g>
		<g>
			<g style="opacity:0.7;">
				<path style="fill:#DBDBDB;" d="M82.692,418.142c-0.169,3.852-10,3.75-22.336,3.75c-12.336,0-22.131,0.103-22.336-3.75
					c-0.223-4.19,10-4.884,22.336-4.884C72.692,413.258,82.898,413.443,82.692,418.142z"/>
			</g>
			<g>
				<g>
					<path style="fill:#59C1AD;" d="M67.926,367.09c9.136-3.593,17.674-17.084,16.706-34.272
						c-2.188-38.829-7.917-90.563-13.605-101.233c-1.755-3.292-4.233-6.396-7.61-7.6c-4.969-1.772-10.614,1.216-13.61,5.785
						c-2.996,4.569-3.834,10.342-4.032,15.906c-0.443,12.498-7.133,68.519-7.993,84.528c-0.581,10.802,2.682,25.476,10.936,33.262
						C54.25,368.685,63.41,368.866,67.926,367.09z"/>
				</g>
				<g style="opacity:0.5;">
					<g>
						<path style="fill:#4BAF9C;" d="M82.63,304.94c0.822,9.537,1.504,19.042,2.002,27.878c0.968,17.188-7.57,30.679-16.706,34.272
							c-4.516,1.776-13.676,1.595-19.208-3.624c-5.05-4.764-8.232-12.107-9.808-19.563c0,0,21.664-9.195,30.165-18.302
							C77.575,316.493,82.63,304.94,82.63,304.94z"/>
					</g>
				</g>
				<g>
					<path style="fill:#2D3962;" d="M61.092,376.627c-0.002,0-0.004,0-0.007,0c-0.427-0.004-0.769-0.353-0.765-0.779L61.3,268.453
						c0.004-0.424,0.349-0.766,0.772-0.766c0.003,0,0.005,0,0.007,0c0.427,0.004,0.769,0.354,0.765,0.779l-0.979,107.396
						C61.86,376.285,61.516,376.627,61.092,376.627z"/>
				</g>
				<g>
					<path style="fill:#97DDCF;" d="M58.794,367.091c6.495-4.427,10.692-15.864,6.755-28.053
						c-8.895-27.535-22.953-63.656-29.384-70.199c-1.985-2.019-4.5-3.756-7.37-3.945c-4.222-0.277-8.094,3.011-9.596,6.906
						c-1.503,3.895-1.093,8.222-0.218,12.271c1.964,9.093,7.081,50.802,9.367,62.508c1.543,7.899,6.813,17.815,14.722,21.765
						C48.371,370.991,55.583,369.28,58.794,367.091z"/>
				</g>
				<g style="opacity:0.18;">
					<g>
						<path style="fill:#4BAF9C;" d="M59.257,320.563c2.25,6.302,4.389,12.585,6.292,18.475c3.938,12.189-0.259,23.626-6.755,28.053
							c-3.211,2.188-10.423,3.9-15.724,1.253c-4.246-2.12-7.732-5.961-10.289-10.286c0,0,11.4-9.386,16.864-18.493
							C55.11,330.458,59.257,320.563,59.257,320.563z"/>
					</g>
				</g>
				<g>
					<path style="fill:#2D3962;" d="M56.329,376.812c-0.347,0-0.662-0.235-0.749-0.587c-0.156-0.628-15.643-63.039-22.777-83.894
						c-0.138-0.403,0.077-0.843,0.481-0.98c0.402-0.139,0.843,0.077,0.98,0.48c7.156,20.918,22.66,83.394,22.815,84.022
						c0.103,0.414-0.15,0.832-0.564,0.935C56.453,376.804,56.39,376.812,56.329,376.812z"/>
				</g>
				<g>
					<g>
						<path style="fill:#6B8DF2;" d="M75.893,377.21l2.573,39.707H43.39l2.623-39.381c0.309-1.429,1.565-2.455,3.027-2.471
							l23.772-0.26C74.275,374.789,75.554,375.788,75.893,377.21z"/>
					</g>
					<g style="opacity:0.09;">
						<path style="fill:#2D3962;" d="M76.921,393.069l1.546,23.848H43.39c0,0,16.567-5.623,22.537-10.698
							C71.897,401.145,76.921,393.069,76.921,393.069z"/>
					</g>
					<g>
						<path style="fill:#2D3962;" d="M75.855,381.266c-0.001,0-0.002,0-0.003,0l-29.655-0.106c-0.426-0.002-0.771-0.349-0.769-0.775
							c0.001-0.426,0.347-0.77,0.772-0.77c0.001,0,0.002,0,0.003,0l29.655,0.106c0.426,0.002,0.771,0.349,0.769,0.775
							C76.625,380.922,76.28,381.266,75.855,381.266z"/>
					</g>
					<g>
						<path style="fill:#2D3962;" d="M78.026,413.146H43.837c-0.426,0-0.772-0.346-0.772-0.772c0-0.427,0.346-0.773,0.772-0.773
							h34.189c0.426,0,0.772,0.346,0.772,0.773C78.798,412.8,78.452,413.146,78.026,413.146z"/>
					</g>
				</g>
			</g>
		</g>
		<g>
			<g style="opacity:0.7;">
				<path style="fill:#DBDBDB;" d="M210.297,483.033c-0.37,5.415-21.911,5.448-48.939,5.448s-48.491-0.032-48.939-5.448
					c-0.488-5.89,21.911-6.865,48.939-6.865S210.748,476.428,210.297,483.033z"/>
			</g>
			<g>
				<path style="fill:#87A7F9;" d="M186.676,443.706c-9.64-4.591-19.792-2.348-30.381-0.821
					c-2.636-3.567-10.247-13.291-11.608-12.623c-0.612,0.3-3.936,9.109-5.626,12.279c-0.313,0.587-7.285,3.811-9.708,4.559
					c0,0-14.006-5.401-14.456-4.911c-0.295,0.321,2.879,16.191,3.31,17.92c0.435,1.743,0.434,3.567,0.795,5.327
					c1.343,6.531,3.359,9.02,6.285,10.732c-0.917,0.197-1.755,0.439-2.481,0.738c-1.915,0.787-2.234,4.021-2.234,5.585l32.964-0.208
					c3.465,1.202,10.811,0.074,13.635,0.032c14.22-0.211,24.95,0.049,31.199,0.113c3.749,0.038,5.745,0.407,6.307-0.563
					C207.493,477.008,205.051,452.457,186.676,443.706z"/>
			</g>
			<g style="opacity:0.56;">
				<path style="fill:#6B8DF2;" d="M203.035,462.563c3.15,8.448,3.15,16.699,1.643,19.3c-0.562,0.97-2.558,0.601-6.307,0.563
					c-6.249-0.064-16.979-0.324-31.199-0.113c-2.824,0.042-10.17,1.17-13.635-0.032c0,0,27.737-4.859,33.741-7.561
					C193.282,472.018,203.035,462.563,203.035,462.563z"/>
			</g>
			<g>
				<path style="fill:#2D3962;" d="M127.348,448.906c-0.191,0-0.373-0.108-0.46-0.292c-0.119-0.254-0.01-0.557,0.244-0.676
					l13.882-6.507c0.253-0.118,0.556-0.009,0.675,0.244c0.119,0.254,0.01,0.557-0.244,0.676l-13.882,6.507
					C127.493,448.89,127.42,448.906,127.348,448.906z"/>
			</g>
			<g>
				<path style="fill:#2D3962;" d="M131.82,460.342c-1.143,0-2.224-0.689-2.665-1.814c-0.102-0.262,0.026-0.556,0.288-0.658
					c0.261-0.101,0.556,0.026,0.658,0.287c0.37,0.947,1.443,1.413,2.387,1.044c0.458-0.18,0.819-0.526,1.016-0.978
					c0.197-0.451,0.207-0.951,0.027-1.409c-0.102-0.262,0.026-0.556,0.288-0.658c0.261-0.1,0.556,0.026,0.658,0.287
					c0.278,0.711,0.264,1.487-0.043,2.187c-0.306,0.699-0.865,1.238-1.576,1.517C132.517,460.279,132.166,460.342,131.82,460.342z"
					/>
			</g>
			<g>
				<path style="fill:#2D3962;" d="M140.649,455.822c-0.389,0-0.777-0.08-1.144-0.241c-0.699-0.306-1.238-0.865-1.516-1.575
					c-0.102-0.262,0.026-0.556,0.288-0.658c0.26-0.1,0.555,0.026,0.658,0.287c0.179,0.459,0.526,0.819,0.978,1.017
					c0.45,0.196,0.951,0.205,1.41,0.027c0.458-0.18,0.819-0.526,1.016-0.978c0.197-0.451,0.207-0.951,0.027-1.409
					c-0.102-0.262,0.026-0.556,0.288-0.658c0.261-0.101,0.555,0.026,0.658,0.287c0.278,0.711,0.264,1.487-0.043,2.187
					c-0.306,0.699-0.865,1.238-1.576,1.517C141.354,455.756,141.002,455.822,140.649,455.822z"/>
			</g>
			<g>
				<path style="fill:#2D3962;" d="M135.897,460.374c-0.28-1.281,3.971-3.028,4.812-2.308c0.809,0.693-1.393,3.217-1.393,3.217
					S136.086,461.237,135.897,460.374z"/>
			</g>
			<g>
				<path style="fill:#2D3962;" d="M121.019,482.396c-0.28,0-0.508-0.228-0.508-0.508c0-1.646,0.331-4.541,2.549-5.453
					c3.203-1.316,8.784-1.776,16.591-1.365c0.28,0.015,0.495,0.254,0.48,0.533c-0.015,0.281-0.262,0.51-0.534,0.48
					c-7.546-0.397-13.131,0.05-16.151,1.291c-1.732,0.712-1.919,3.394-1.919,4.514C121.527,482.168,121.299,482.396,121.019,482.396
					z"/>
			</g>
			<g>
				<path style="fill:#2D3962;" d="M153.844,482.381c-0.073,0-0.147-0.016-0.217-0.05c-0.931-0.442-1.904-1.664-1.841-3.767
					c0.051-1.714,0.536-2.926,1.48-3.706c1.946-1.606,5.438-1.039,9.859-0.324c3.03,0.491,6.473,1.059,9.986,0.982
					c1.954-0.036,3.839-0.226,5.662-0.41c4.575-0.462,9.307-0.94,15.848,0.85c0.271,0.073,0.43,0.353,0.356,0.623
					c-0.074,0.27-0.354,0.434-0.624,0.355c-6.358-1.74-10.995-1.273-15.479-0.818c-1.843,0.186-3.749,0.378-5.745,0.415
					c-3.606,0.06-7.094-0.498-10.167-0.996c-4.003-0.647-7.459-1.208-9.05,0.105c-0.706,0.583-1.07,1.549-1.112,2.954
					c-0.048,1.614,0.649,2.527,1.262,2.819c0.254,0.12,0.361,0.423,0.241,0.676C154.216,482.274,154.034,482.381,153.844,482.381z"
					/>
			</g>
			<g>
				<path style="fill:#2D3962;" d="M197.864,453.491c-1.204,1.812-3.846,2.187-5.87,1.39c-2.024-0.797-3.549-2.486-4.906-4.186
					c-0.277-0.347-0.564-0.709-0.962-0.905c-0.384-0.189-0.831-0.203-1.257-0.161c-2.405,0.236-4.592,2.086-6.974,1.682
					c-1.93-0.327-3.346-2.118-3.837-4.014c-0.49-1.895,0.033-4.449,0.287-6.39c0,0,6.382-0.314,14.695,3.944
					C196.896,448.876,197.864,453.491,197.864,453.491z"/>
			</g>
			<g>
				<path style="fill:#2D3962;" d="M187.093,454.757c-0.699-0.248-1.493-0.163-2.401-0.166c-0.13,0-0.263,0-0.382,0.051
					c-0.116,0.049-0.208,0.142-0.284,0.242c-1.482,1.953,1.562,3.442,3.127,3.176c0.572-0.097,1.165-0.39,1.383-0.928
					c0.193-0.477,0.039-1.038-0.264-1.454C187.912,455.184,187.52,454.909,187.093,454.757z"/>
			</g>
			<g>
				<path style="fill:#2D3962;" d="M128.519,431.201h-3.704c-0.147,0-0.28-0.087-0.339-0.222c-0.059-0.135-0.033-0.292,0.067-0.399
					l3.13-3.392h-2.49c-0.205,0-0.371-0.166-0.371-0.37s0.166-0.37,0.371-0.37h3.336c0.147,0,0.28,0.087,0.339,0.222
					c0.059,0.135,0.033,0.292-0.067,0.399l-3.13,3.392h2.858c0.205,0,0.371,0.166,0.371,0.37
					C128.89,431.034,128.724,431.201,128.519,431.201z"/>
			</g>
			<g>
				<path style="fill:#2D3962;" d="M137.007,424.102h-3.704c-0.147,0-0.28-0.087-0.339-0.222c-0.059-0.135-0.033-0.292,0.067-0.399
					l3.13-3.392h-2.49c-0.205,0-0.371-0.166-0.371-0.37c0-0.204,0.166-0.37,0.371-0.37h3.336c0.147,0,0.28,0.087,0.339,0.222
					c0.059,0.135,0.033,0.292-0.067,0.399l-3.13,3.392h2.858c0.205,0,0.371,0.166,0.371,0.37S137.212,424.102,137.007,424.102z"/>
			</g>
			<g>
				<path style="fill:#2D3962;" d="M124.506,418.699h-3.704c-0.147,0-0.28-0.087-0.339-0.222c-0.059-0.135-0.033-0.292,0.067-0.4
					l3.13-3.392h-2.49c-0.204,0-0.371-0.166-0.371-0.37s0.166-0.37,0.371-0.37h3.336c0.147,0,0.28,0.087,0.339,0.222
					c0.059,0.135,0.033,0.292-0.067,0.399l-3.13,3.392h2.858c0.205,0,0.371,0.166,0.371,0.37S124.711,418.699,124.506,418.699z"/>
			</g>
			<g style="opacity:0.47;">
				<path style="fill:#FFFFFF;" d="M117.185,444.943c-0.91,0.745,1.251,8.509,1.251,8.509s7.007-2.455,6.6-4.27
					C124.906,448.6,118.033,444.248,117.185,444.943z"/>
			</g>
			<g style="opacity:0.47;">
				<path style="fill:#FFFFFF;" d="M145.559,433.241c1.16-0.195,5.281,5.488,5.281,5.488s-6.461,3.469-7.559,1.968
					C142.929,440.216,144.478,433.422,145.559,433.241z"/>
			</g>
		</g>
		<g>
			<g style="opacity:0.21;">
				<rect x="0.045" y="385.315" style="fill:#DBDBDB;" width="499.582" height="114.843"/>
			</g>
			<g style="opacity:0.7;">
				<circle style="fill:#DBDBDB;" cx="18.118" cy="410.66" r="1.958"/>
			</g>
			<g style="opacity:0.7;">
				<path style="fill:#DBDBDB;" d="M108.172,403.482c0,1.081-0.876,1.958-1.958,1.958c-1.081,0-1.958-0.876-1.958-1.958
					c0-1.081,0.876-1.958,1.958-1.958C107.296,401.524,108.172,402.401,108.172,403.482z"/>
			</g>
			<g style="opacity:0.7;">
				<path style="fill:#DBDBDB;" d="M274.578,480.485c0,1.081-0.877,1.958-1.958,1.958c-1.081,0-1.958-0.876-1.958-1.958
					c0-1.081,0.876-1.958,1.958-1.958C273.701,478.528,274.578,479.404,274.578,480.485z"/>
			</g>
			<g style="opacity:0.7;">
				<circle style="fill:#DBDBDB;" cx="389.43" cy="402.829" r="1.958"/>
			</g>
			<g style="opacity:0.7;">
				<circle style="fill:#DBDBDB;" cx="483.401" cy="418.491" r="1.958"/>
			</g>
			<g style="opacity:0.7;">
				<path style="fill:#DBDBDB;" d="M368.548,475.917c0,1.081-0.876,1.958-1.958,1.958s-1.958-0.877-1.958-1.958
					c0-1.081,0.876-1.958,1.958-1.958S368.548,474.836,368.548,475.917z"/>
			</g>
			<g style="opacity:0.7;">
				<path style="fill:#DBDBDB;" d="M466.434,473.307c0,1.081-0.877,1.958-1.958,1.958c-1.081,0-1.958-0.876-1.958-1.958
					c0-1.081,0.876-1.958,1.958-1.958C465.557,471.349,466.434,472.226,466.434,473.307z"/>
			</g>
			<g style="opacity:0.7;">
				<path style="fill:#DBDBDB;" d="M201.49,396.304c0,1.081-0.877,1.958-1.958,1.958c-1.081,0-1.958-0.876-1.958-1.958
					c0-1.081,0.876-1.958,1.958-1.958C200.613,394.346,201.49,395.223,201.49,396.304z"/>
			</g>
			<g style="opacity:0.7;">
				<path style="fill:#DBDBDB;" d="M285.172,405.482c0,1.081-0.877,1.958-1.958,1.958c-1.081,0-1.958-0.876-1.958-1.958
					c0-1.081,0.876-1.958,1.958-1.958C284.296,403.524,285.172,404.401,285.172,405.482z"/>
			</g>
			<g style="opacity:0.7;">
				<path style="fill:#DBDBDB;" d="M57.272,451.12c0,1.081-0.876,1.958-1.958,1.958c-1.081,0-1.958-0.876-1.958-1.958
					c0-1.081,0.876-1.958,1.958-1.958C56.395,449.162,57.272,450.039,57.272,451.12z"/>
			</g>
			<g style="opacity:0.7;">
				<circle style="fill:#DBDBDB;" cx="25.296" cy="481.791" r="1.958"/>
			</g>
		</g>
	</g>
</g>
</svg>
