<svg width="2000" height="379" viewBox="0 0 2000 379" fill="none" xmlns="http://www.w3.org/2000/svg">
<g clip-path="url(#clip0_579_25)">
<path d="M76.411 123.521C164.577 108.82 156.869 156.619 197.146 158.468C237.376 160.318 237.376 145.617 283.386 162.167C329.396 178.716 338.935 213.664 383.018 208.116C427.102 202.615 427.101 178.716 459.671 209.966C492.239 241.215 505.681 266.964 559.303 298.213C612.974 329.463 645.542 305.563 672.378 292.712C699.213 279.861 685.772 272.465 727.928 285.362C770.083 298.213 885.037 270.662 931.047 265.115C977.058 259.614 1023.02 217.316 1053.66 202.615C1084.3 187.915 1147.57 230.213 1174.39 244.913C1201.23 259.614 1228.07 239.412 1260.64 230.213C1293.2 221.014 1327.7 222.863 1385.18 198.964C1442.66 175.064 1489.43 187.638 1534.73 176.959C1599.86 161.566 1616.62 180.426 1705.18 211.815C1750.22 227.809 1749.89 227.116 1770.32 206.314C1780.24 196.19 1792.29 210.613 1806.31 213.525C1825.58 217.501 1842.25 208.902 1882.47 192.353C1915.18 178.901 1974.92 148.252 2001.04 156.758V373.437H0.0483398V134.615C18.5971 132.443 43.6979 129.022 76.411 123.521Z" fill="#F8D9D9"/>
<path d="M778.853 336.865C778.853 336.865 792.632 330.532 793.209 321.009C787.718 321.518 777.793 331.04 777.793 331.04C777.793 331.04 782.755 318.328 773.36 310.932C772.251 318.883 775.866 330.624 775.866 330.624C775.866 330.624 773.504 327.111 767.868 325.493C769.12 329.422 771.77 333.537 778.853 336.865Z" fill="#FFA78F"/>
<path d="M1780.24 273.534C1780.24 273.534 1805.15 262.07 1806.11 244.873C1796.14 245.844 1778.22 263.04 1778.22 263.04C1778.22 263.04 1787.18 240.112 1770.27 226.752C1768.3 241.082 1774.8 262.301 1774.8 262.301C1774.8 262.301 1770.51 255.968 1760.34 253.055C1762.66 260.082 1767.42 267.524 1780.24 273.534Z" fill="#FFA78F"/>
<path d="M358.062 303.583C358.062 303.583 368.227 302.936 369.866 294.476C368.227 290.408 362.639 299.192 362.639 299.192C362.639 299.192 360.664 284.122 351.847 278.436C356.761 291.333 360.038 299.192 360.038 299.192C360.038 299.192 352.811 289.114 344.332 288.513C346.933 296.649 358.062 303.583 358.062 303.583Z" fill="#FFA78F"/>
<path d="M1498.98 246.676C1498.98 246.676 1509.14 246.029 1510.78 237.57C1509.14 233.502 1503.55 242.285 1503.55 242.285C1503.55 242.285 1501.57 227.215 1492.76 221.529C1497.68 234.426 1500.95 242.285 1500.95 242.285C1500.95 242.285 1493.73 232.207 1485.24 231.606C1487.85 239.742 1498.98 246.676 1498.98 246.676Z" fill="#FFA78F"/>
<path d="M106.956 254.257L121.458 238.263C116.109 237.246 105.896 249.08 105.896 249.08C105.896 249.08 110.184 237.754 98.9102 223.84C95.1042 237.246 106.956 254.257 106.956 254.257Z" fill="#FFA78F"/>
<path d="M244.458 199.85V286.202Z" fill="white"/>
<path d="M244.458 199.85V286.202" stroke="#FFA78F" stroke-width="3.1879" stroke-miterlimit="10" stroke-linecap="round"/>
<path d="M270.956 204.471C270.956 217.507 265.897 223.193 245.565 222.315Z" fill="#F8D9D9"/>
<path d="M270.956 204.471C270.956 217.507 265.897 223.193 245.565 222.315" stroke="#FFA78F" stroke-width="3.1879" stroke-miterlimit="10" stroke-linecap="round"/>
<path d="M217.526 222.547C217.526 235.583 222.585 241.269 242.916 240.391Z" fill="#F8D9D9"/>
<path d="M217.526 222.547C217.526 235.583 222.585 241.269 242.916 240.391" stroke="#FFA78F" stroke-width="3.1879" stroke-miterlimit="10" stroke-linecap="round"/>
<path d="M1069.04 221.898V308.25Z" fill="white"/>
<path d="M1069.04 221.898V308.25" stroke="#FFBCBC" stroke-width="3.1879" stroke-miterlimit="10" stroke-linecap="round"/>
<path d="M1095.53 226.521C1095.53 239.558 1090.47 245.243 1070.14 244.365Z" fill="#F8D9D9"/>
<path d="M1095.53 226.521C1095.53 239.558 1090.47 245.243 1070.14 244.365" stroke="#FFBCBC" stroke-width="3.1879" stroke-miterlimit="10" stroke-linecap="round"/>
<path d="M1042.1 244.598C1042.1 257.634 1047.16 263.32 1067.49 262.442Z" fill="#F8D9D9"/>
<path d="M1042.1 244.598C1042.1 257.634 1047.16 263.32 1067.49 262.442" stroke="#FFBCBC" stroke-width="3.1879" stroke-miterlimit="10" stroke-linecap="round"/>
<path d="M1926.27 175.395V261.747Z" fill="white"/>
<path d="M1926.27 175.395V261.747" stroke="#FFA78F" stroke-width="3.1879" stroke-miterlimit="10" stroke-linecap="round"/>
<path d="M1952.77 180.018C1952.77 193.054 1947.71 198.74 1927.38 197.861Z" fill="#F8D9D9"/>
<path d="M1952.77 180.018C1952.77 193.054 1947.71 198.74 1927.38 197.861" stroke="#FFA78F" stroke-width="3.1879" stroke-miterlimit="10" stroke-linecap="round"/>
<path d="M1899.33 198.092C1899.33 211.128 1904.4 216.814 1924.73 215.936Z" fill="#F8D9D9"/>
<path d="M1899.33 198.092C1899.33 211.128 1904.4 216.814 1924.73 215.936" stroke="#FFA78F" stroke-width="3.1879" stroke-miterlimit="10" stroke-linecap="round"/>
<path d="M116.303 249.312C150.172 234.01 150.172 232.115 182.018 258.881C213.865 285.646 245.71 283.704 245.71 283.704C245.71 283.704 311.426 274.136 363.169 302.796C414.913 331.457 424.886 350.548 496.575 354.385C568.265 358.222 773.312 329.562 821.105 329.562C868.897 329.562 837.052 348.654 890.771 327.667C944.538 306.633 922.617 302.843 1016.23 299.006C1109.79 295.169 1247.19 277.972 1366.63 264.613C1486.11 251.253 1512.17 227.354 1675.6 253.657C1734.72 263.18 1805.77 268.773 1875.83 255.876C1911.91 249.219 1954.22 252.501 2000.99 263.087V378.344H0V187.229C43.6015 191.666 86.7695 262.671 116.303 249.312Z" fill="#FFBCBC"/>
<path d="M1769.82 69.1968C1769.82 69.1968 1761.73 71.626 1759.62 73.3145C1757.56 75.0031 1757.25 77.8173 1751.63 76.899C1751.69 77.8765 1752.34 79.2393 1752.34 79.2393C1752.34 79.2393 1747.46 84.8973 1747.07 86.6155C1746.66 88.3337 1754.9 95.3545 1754.9 95.3545L1752.18 102.109C1752.18 102.109 1759.72 111.529 1761.7 107.767C1764.72 102.02 1768.89 98.1392 1768.89 98.1392C1768.89 98.1392 1777.69 96.8357 1784.02 90.911C1796.74 101.664 1805.26 85.2232 1788.81 82.6756C1788.53 72.6332 1771.52 64.7532 1769.82 69.1968Z" fill="#FFA78F"/>
<path d="M1750.48 19.7851C1752.5 18.215 1753.05 16.7042 1753.27 14.1862C1753.55 10.7499 1756.32 10.0389 1755.71 9.09097C1755.12 8.20226 1752.46 9.86112 1749.87 12.0829C1749.29 8.0837 1748.94 6.75064 1748.7 2.45521C1748.48 -1.04038 1743.57 -0.803333 1742.99 3.16624C1742.52 6.48409 1742.21 8.11335 1741.97 14.4232C1741.81 18.215 1742.03 20.496 1741.97 24.4952C1741.91 27.0725 1741.14 46.2686 1741.47 50.3567C1742.49 62.8579 1741.04 69.8787 1740.85 73.2262C1740.49 80.4247 1739.93 97.0435 1739.93 97.0435C1739.93 97.0435 1739.41 102.642 1733.54 110.196C1729.78 115.025 1725.17 118.876 1733.19 128.563C1735.63 152.677 1736.87 166.037 1736.87 166.037C1736.87 166.037 1695.13 190.032 1692.02 193.024C1688.89 196.016 1687.79 199.689 1687.28 205.407C1686.64 213.257 1685.9 248.124 1685.9 248.124L1659.17 262.492L1692.96 257.544C1692.96 257.544 1694.17 237.637 1702.67 222.411C1707.91 213.02 1706.9 205.555 1706.9 205.555L1746.63 192.521C1746.63 192.521 1753.69 191.869 1756.79 193.913C1770.87 203.215 1792.76 218.974 1799.52 222.115C1818.72 231.061 1833.63 241.637 1845.34 251.827C1836.59 252.775 1833.66 255.589 1833.66 255.589L1862.87 260.092C1862.87 260.092 1862.44 255.886 1856.41 251.768C1847.81 245.873 1832.67 223.981 1807.67 208.547C1799.61 203.57 1796.8 199.838 1790.04 191.81C1778.61 178.242 1772.38 170.362 1769.44 165.208C1767.65 161.297 1761.42 145.804 1761.42 131.289C1761.42 114.107 1767.62 107.234 1762.87 100.184C1755.99 90.0228 1754.13 91.9779 1750.64 78.7954C1749.93 76.1589 1748.08 62.7986 1749.38 50.0604C1750.31 41.0548 1749.19 31.0124 1749.19 26.6873C1749.22 22.3919 1750.48 19.7851 1750.48 19.7851Z" fill="#F3A4A4"/>
</g>
<defs>
<clipPath id="clip0_579_25">
<rect width="2000" height="379" fill="white"/>
</clipPath>
</defs>
</svg>
