<svg width="1919" height="379" viewBox="0 0 1919 379" fill="none" xmlns="http://www.w3.org/2000/svg">
<g clip-path="url(#clip0_579_25)">
<path d="M73.3164 123.521C157.912 108.82 150.516 156.619 189.162 158.468C227.762 160.318 227.762 145.617 271.909 162.167C316.056 178.716 325.208 213.664 367.506 208.116C409.804 202.615 409.804 178.716 441.054 209.966C472.303 241.215 485.201 266.964 536.651 298.213C588.149 329.463 619.398 305.563 645.147 292.712C670.895 279.861 657.998 272.465 698.447 285.362C738.895 298.213 849.193 270.662 893.34 265.115C937.487 259.614 981.588 217.316 1010.99 202.615C1040.39 187.915 1101.09 230.213 1126.83 244.913C1152.58 259.614 1178.33 239.412 1209.58 230.213C1240.83 221.014 1273.93 222.863 1329.08 198.964C1384.23 175.064 1429.11 187.638 1472.57 176.959C1535.07 161.566 1551.15 180.426 1636.12 211.815C1679.34 227.809 1679.02 227.116 1698.62 206.314C1708.14 196.19 1719.7 210.613 1733.15 213.525C1751.64 217.501 1767.64 208.902 1806.23 192.353C1837.62 178.901 1894.94 148.252 1920 156.758V373.437H0.0463867V134.615C17.8439 132.443 41.9282 129.022 73.3164 123.521Z" fill="#F8D9D9"/>
<path d="M747.309 336.865C747.309 336.865 760.53 330.532 761.084 321.009C755.815 321.518 746.292 331.04 746.292 331.04C746.292 331.04 751.053 318.328 742.039 310.932C740.975 318.883 744.443 330.624 744.443 330.624C744.443 330.624 742.177 327.111 736.769 325.493C737.971 329.422 740.513 333.537 747.309 336.865Z" fill="#FFA78F"/>
<path d="M1708.14 273.534C1708.14 273.534 1732.04 262.07 1732.96 244.873C1723.4 245.844 1706.2 263.04 1706.2 263.04C1706.2 263.04 1714.8 240.112 1698.57 226.752C1696.68 241.082 1702.92 262.301 1702.92 262.301C1702.92 262.301 1698.8 255.968 1689.05 253.055C1691.27 260.082 1695.84 267.524 1708.14 273.534Z" fill="#FFA78F"/>
<path d="M343.56 303.583C343.56 303.583 353.314 302.936 354.886 294.476C353.314 290.408 347.952 299.192 347.952 299.192C347.952 299.192 346.057 284.122 337.597 278.436C342.312 291.333 345.456 299.192 345.456 299.192C345.456 299.192 338.522 289.114 330.386 288.513C332.882 296.649 343.56 303.583 343.56 303.583Z" fill="#FFA78F"/>
<path d="M1438.27 246.676C1438.27 246.676 1448.02 246.029 1449.59 237.57C1448.02 233.502 1442.66 242.285 1442.66 242.285C1442.66 242.285 1440.76 227.215 1432.3 221.529C1437.02 234.426 1440.16 242.285 1440.16 242.285C1440.16 242.285 1433.23 232.207 1425.09 231.606C1427.59 239.742 1438.27 246.676 1438.27 246.676Z" fill="#FFA78F"/>
<path d="M102.624 254.257L116.539 238.263C111.407 237.246 101.607 249.08 101.607 249.08C101.607 249.08 105.722 237.754 94.9046 223.84C91.2527 237.246 102.624 254.257 102.624 254.257Z" fill="#FFA78F"/>
<path d="M234.557 199.85V286.202Z" fill="white"/>
<path d="M234.557 199.85V286.202" stroke="#FFA78F" stroke-width="3.1879" stroke-miterlimit="10" stroke-linecap="round"/>
<path d="M259.982 204.471C259.982 217.507 255.128 223.193 235.62 222.315Z" fill="white"/>
<path d="M259.982 204.471C259.982 217.507 255.128 223.193 235.62 222.315" stroke="#FFA78F" stroke-width="3.1879" stroke-miterlimit="10" stroke-linecap="round"/>
<path d="M208.716 222.547C208.716 235.583 213.57 241.269 233.078 240.391Z" fill="white"/>
<path d="M208.716 222.547C208.716 235.583 213.57 241.269 233.078 240.391" stroke="#FFA78F" stroke-width="3.1879" stroke-miterlimit="10" stroke-linecap="round"/>
<path d="M1025.74 221.898V308.25Z" fill="white"/>
<path d="M1025.74 221.898V308.25" stroke="#FFBCBC" stroke-width="3.1879" stroke-miterlimit="10" stroke-linecap="round"/>
<path d="M1051.16 226.521C1051.16 239.558 1046.31 245.243 1026.8 244.365Z" fill="white"/>
<path d="M1051.16 226.521C1051.16 239.558 1046.31 245.243 1026.8 244.365" stroke="#FFBCBC" stroke-width="3.1879" stroke-miterlimit="10" stroke-linecap="round"/>
<path d="M999.894 244.598C999.894 257.634 1004.75 263.32 1024.26 262.442Z" fill="white"/>
<path d="M999.894 244.598C999.894 257.634 1004.75 263.32 1024.26 262.442" stroke="#FFA78F" stroke-width="3.1879" stroke-miterlimit="10" stroke-linecap="round"/>
<path d="M1848.26 175.395V261.747Z" fill="white"/>
<path d="M1848.26 175.395V261.747" stroke="#FFA78F" stroke-width="3.1879" stroke-miterlimit="10" stroke-linecap="round"/>
<path d="M1873.68 180.018C1873.68 193.054 1868.83 198.74 1849.32 197.861Z" fill="white"/>
<path d="M1873.68 180.018C1873.68 193.054 1868.83 198.74 1849.32 197.861" stroke="#FFA78F" stroke-width="3.1879" stroke-miterlimit="10" stroke-linecap="round"/>
<path d="M1822.41 198.092C1822.41 211.128 1827.27 216.814 1846.78 215.936Z" fill="white"/>
<path d="M1822.41 198.092C1822.41 211.128 1827.27 216.814 1846.78 215.936" stroke="#FFA78F" stroke-width="3.1879" stroke-miterlimit="10" stroke-linecap="round"/>
<path d="M111.593 249.312C144.09 234.01 144.09 232.115 174.646 258.881C205.203 285.646 235.759 283.704 235.759 283.704C235.759 283.704 298.813 274.136 348.461 302.796C398.109 331.457 407.678 350.548 476.464 354.385C545.25 358.222 741.993 329.562 787.85 329.562C833.707 329.562 803.151 348.654 854.695 327.667C906.284 306.633 885.251 302.843 975.07 299.006C1064.84 295.169 1196.68 277.972 1311.28 264.613C1425.92 251.253 1450.93 227.354 1607.74 253.657C1664.46 263.18 1732.64 268.773 1799.86 255.876C1834.48 249.219 1875.07 252.501 1919.95 263.087V378.344H0V187.229C41.8356 191.666 83.2553 262.671 111.593 249.312Z" fill="#FFBCBC"/>
<path d="M1698.14 69.1968C1698.14 69.1968 1690.38 71.626 1688.36 73.3145C1686.38 75.0031 1686.08 77.8173 1680.69 76.899C1680.75 77.8765 1681.37 79.2393 1681.37 79.2393C1681.37 79.2393 1676.69 84.8973 1676.31 86.6155C1675.92 88.3337 1683.83 95.3545 1683.83 95.3545L1681.22 102.109C1681.22 102.109 1688.45 111.529 1690.35 107.767C1693.25 102.02 1697.25 98.1392 1697.25 98.1392C1697.25 98.1392 1705.69 96.8357 1711.77 90.911C1723.97 101.664 1732.15 85.2232 1716.36 82.6756C1716.09 72.6332 1699.77 64.7532 1698.14 69.1968Z" fill="#FFA78F"/>
<path d="M1679.59 19.7851C1681.52 18.215 1682.05 16.7042 1682.26 14.1862C1682.53 10.7499 1685.19 10.0389 1684.6 9.09097C1684.04 8.20226 1681.49 9.86112 1679 12.0829C1678.44 8.0837 1678.11 6.75064 1677.88 2.45521C1677.67 -1.04038 1672.96 -0.803333 1672.4 3.16624C1671.95 6.48409 1671.65 8.11335 1671.42 14.4232C1671.27 18.215 1671.48 20.496 1671.42 24.4952C1671.36 27.0725 1670.62 46.2686 1670.94 50.3567C1671.92 62.8579 1670.53 69.8787 1670.35 73.2262C1670 80.4247 1669.46 97.0435 1669.46 97.0435C1669.46 97.0435 1668.96 102.642 1663.33 110.196C1659.72 115.025 1655.3 118.876 1663 128.563C1665.34 152.677 1666.53 166.037 1666.53 166.037C1666.53 166.037 1626.48 190.032 1623.49 193.024C1620.49 196.016 1619.43 199.689 1618.95 205.407C1618.33 213.257 1617.62 248.124 1617.62 248.124L1591.97 262.492L1624.4 257.544C1624.4 257.544 1625.56 237.637 1633.71 222.411C1638.74 213.02 1637.77 205.555 1637.77 205.555L1675.89 192.521C1675.89 192.521 1682.67 191.869 1685.64 193.913C1699.15 203.215 1720.15 218.974 1726.64 222.115C1745.06 231.061 1759.37 241.637 1770.6 251.827C1762.21 252.775 1759.4 255.589 1759.4 255.589L1787.42 260.092C1787.42 260.092 1787.01 255.886 1781.23 251.768C1772.97 245.873 1758.45 223.981 1734.46 208.547C1726.73 203.57 1724.03 199.838 1717.54 191.81C1706.58 178.242 1700.6 170.362 1697.78 165.208C1696.06 161.297 1690.08 145.804 1690.08 131.289C1690.08 114.107 1696.03 107.234 1691.47 100.184C1684.87 90.0228 1683.09 91.9779 1679.74 78.7954C1679.06 76.1589 1677.28 62.7986 1678.53 50.0604C1679.42 41.0548 1678.35 31.0124 1678.35 26.6873C1678.38 22.3919 1679.59 19.7851 1679.59 19.7851Z" fill="#F3A4A4"/>
</g>
<defs>
<clipPath id="clip0_579_25">
<rect width="1919" height="379" fill="white"/>
</clipPath>
</defs>
</svg>
